<?xml version="1.0" standalone="no"?>
<!DOCTYPE svg PUBLIC "-//W3C//DTD SVG 1.1//EN" "http://www.w3.org/Graphics/SVG/1.1/DTD/svg11.dtd">
<svg version="1.1" xmlns="http://www.w3.org/2000/svg" viewBox="0 0 190.6828536321621 20" width="381.3657072643242" height="40" filter="invert(93%) hue-rotate(180deg)"><!-- svg-source:excalidraw --><metadata></metadata><defs><style class="style-fonts">
      </style></defs><g transform="translate(10 10) rotate(0 85.34142681608105 0)" stroke="none"><path fill="#000000" d="M 0,-3.34 Q 0,-3.34 4.80,-3.24 9.60,-3.14 13.98,-3.07 18.36,-3.00 22.57,-2.96 26.78,-2.92 30.91,-2.91 35.04,-2.90 38.63,-3.00 42.22,-3.10 46.09,-3.13 49.96,-3.15 53.95,-3.14 57.94,-3.13 66.98,-3.06 76.03,-2.99 84.13,-2.94 92.22,-2.89 100.67,-2.86 109.12,-2.82 116.26,-2.79 123.40,-2.76 132.58,-2.74 141.75,-2.73 148.16,-2.71 154.58,-2.70 157.99,-2.85 161.40,-3.01 163.53,-3.24 165.66,-3.47 168.17,-3.64 170.68,-3.82 171.29,-3.72 171.90,-3.62 172.45,-3.33 172.99,-3.04 173.42,-2.59 173.84,-2.14 174.10,-1.58 174.36,-1.02 174.43,-0.40 174.50,0.20 174.36,0.81 174.23,1.41 173.91,1.94 173.59,2.47 173.12,2.87 172.65,3.27 172.07,3.50 171.50,3.73 170.88,3.76 170.26,3.80 169.67,3.63 169.07,3.46 168.56,3.12 168.05,2.77 167.67,2.28 167.30,1.79 167.10,1.20 166.90,0.61 166.90,-0.00 166.90,-0.61 167.10,-1.20 167.30,-1.79 167.67,-2.28 168.05,-2.77 168.56,-3.12 169.07,-3.47 169.67,-3.63 170.27,-3.80 170.88,-3.76 171.50,-3.73 172.08,-3.50 172.65,-3.27 173.12,-2.87 173.59,-2.47 173.91,-1.94 174.23,-1.41 174.36,-0.81 174.50,-0.20 174.43,0.40 174.36,1.02 174.10,1.58 173.84,2.14 173.42,2.59 172.99,3.04 172.44,3.33 171.90,3.62 171.29,3.72 170.68,3.82 170.68,3.82 170.68,3.82 168.17,3.64 165.66,3.47 163.53,3.24 161.40,3.01 157.99,2.85 154.58,2.70 148.16,2.71 141.75,2.73 132.58,2.74 123.40,2.76 116.26,2.79 109.12,2.82 100.67,2.86 92.22,2.89 84.13,2.94 76.03,2.99 66.98,3.06 57.94,3.13 53.95,3.14 49.96,3.15 46.09,3.13 42.22,3.10 38.63,3.00 35.04,2.90 30.91,2.91 26.78,2.92 22.57,2.96 18.36,3.00 13.98,3.07 9.60,3.14 4.80,3.24 0,3.34 -0.40,3.29 -0.80,3.24 -1.17,3.10 -1.55,2.96 -1.88,2.73 -2.21,2.50 -2.48,2.20 -2.75,1.89 -2.93,1.54 -3.12,1.18 -3.22,0.79 -3.31,0.40 -3.31,-0.00 -3.31,-0.40 -3.22,-0.79 -3.12,-1.18 -2.93,-1.54 -2.75,-1.89 -2.48,-2.20 -2.21,-2.50 -1.88,-2.73 -1.55,-2.96 -1.17,-3.10 -0.79,-3.24 -0.39,-3.29 0.00,-3.34 0.00,-3.34 L 0,-3.34 Z"></path></g></svg>