<?xml version="1.0" standalone="no"?>
<!DOCTYPE svg PUBLIC "-//W3C//DTD SVG 1.1//EN" "http://www.w3.org/Graphics/SVG/1.1/DTD/svg11.dtd">
<svg version="1.1" xmlns="http://www.w3.org/2000/svg" viewBox="0 0 23.430171783949618 260.62791466296994" width="46.860343567899235" height="521.2558293259399" filter="invert(93%) hue-rotate(180deg)"><!-- svg-source:excalidraw --><metadata></metadata><defs><style class="style-fonts">
      </style></defs><g stroke-linecap="round"><g transform="translate(13.374550090293724 23.736838776419518) rotate(0 -1.4252496431448662 112.71371798358257)"><path d="M0.06 -0.69 C-0.57 37.06, -2.03 187.86, -2.57 225.38 M-1.37 1.57 C-2.24 39.6, -2.92 189.61, -3.37 226.89" stroke="#000000" stroke-width="4" fill="none"></path></g><g transform="translate(13.374550090293724 23.736838776419518) rotate(0 -1.4252496431448662 112.71371798358257)"><path d="M-11.73 203.33 C-9.74 213.21, -5.34 221.61, -3.37 226.89 M-11.73 203.33 C-10.57 208.75, -7.66 213.57, -3.37 226.89" stroke="#000000" stroke-width="4" fill="none"></path></g><g transform="translate(13.374550090293724 23.736838776419518) rotate(0 -1.4252496431448662 112.71371798358257)"><path d="M5.37 203.47 C0.52 213.3, -1.91 221.64, -3.37 226.89 M5.37 203.47 C2.8 208.74, 1.96 213.54, -3.37 226.89" stroke="#000000" stroke-width="4" fill="none"></path></g></g><mask></mask><g stroke-linecap="round"><g transform="translate(12.318216163565921 134.39180897445863) rotate(0 -0.37395542259150716 -61.633856693699386)"><path d="M-0.22 0.92 C-0.24 -19.9, 0.25 -103.88, 0.23 -124.39 M-1.8 0.35 C-1.92 -20.41, -0.35 -102.73, -0.21 -123.44" stroke="#000000" stroke-width="4" fill="none"></path></g><g transform="translate(12.318216163565921 134.39180897445863) rotate(0 -0.37395542259150716 -61.633856693699386)"><path d="M8.03 -99.84 C6.75 -105.96, 0.65 -114.69, -0.21 -123.44 M8.03 -99.84 C4.08 -108.21, 1.65 -117.74, -0.21 -123.44" stroke="#000000" stroke-width="4" fill="none"></path></g><g transform="translate(12.318216163565921 134.39180897445863) rotate(0 -0.37395542259150716 -61.633856693699386)"><path d="M-9.07 -100.07 C-4.75 -106.09, -5.24 -114.73, -0.21 -123.44 M-9.07 -100.07 C-6.3 -108.42, -2.01 -117.87, -0.21 -123.44" stroke="#000000" stroke-width="4" fill="none"></path></g></g><mask></mask></svg>