<?xml version="1.0" standalone="no"?>
<!DOCTYPE svg PUBLIC "-//W3C//DTD SVG 1.1//EN" "http://www.w3.org/Graphics/SVG/1.1/DTD/svg11.dtd">
<svg version="1.1" xmlns="http://www.w3.org/2000/svg" viewBox="0 0 38.96254633248691 110.7627066100847" width="77.92509266497382" height="221.5254132201694" filter="invert(93%) hue-rotate(180deg)"><!-- svg-source:excalidraw --><metadata></metadata><defs><style class="style-fonts">
      </style></defs><g stroke-linecap="round"><g transform="translate(9.886744176018965 100.77747163762274) rotate(0 9.005816119792371 -44.86176475113689)"><path d="M1.03 -0.01 C2.91 -9.17, 9.07 -40.98, 12.08 -56.1 C15.09 -71.23, 18.03 -85.27, 19.08 -90.78 M0.11 -1.07 C1.76 -9.95, 8.05 -39.93, 11.17 -54.76 C14.3 -69.58, 17.6 -83.91, 18.87 -90.01" stroke="#000000" stroke-width="4" fill="none"></path></g><g transform="translate(9.886744176018965 100.77747163762274) rotate(0 9.005816119792371 -44.86176475113689)"><path d="M21.19 -72.91 C20.48 -79.1, 19.12 -83.99, 18.87 -90.01 M21.19 -72.91 C19.85 -76.15, 20.32 -80.13, 18.87 -90.01" stroke="#000000" stroke-width="4" fill="none"></path></g><g transform="translate(9.886744176018965 100.77747163762274) rotate(0 9.005816119792371 -44.86176475113689)"><path d="M9.65 -75.42 C13.18 -80.78, 16.08 -84.74, 18.87 -90.01 M9.65 -75.42 C10.77 -78.18, 13.69 -81.64, 18.87 -90.01" stroke="#000000" stroke-width="4" fill="none"></path></g></g><mask></mask></svg>