<?xml version="1.0" standalone="no"?>
<!DOCTYPE svg PUBLIC "-//W3C//DTD SVG 1.1//EN" "http://www.w3.org/Graphics/SVG/1.1/DTD/svg11.dtd">
<svg version="1.1" xmlns="http://www.w3.org/2000/svg" viewBox="0 0 699.2981406765325 50.885185165469466" width="1398.596281353065" height="101.77037033093893" filter="invert(93%) hue-rotate(180deg)"><!-- svg-source:excalidraw --><metadata></metadata><defs><style class="style-fonts">
      </style></defs><g stroke-linecap="round"><g transform="translate(689.522868382026 40.71625704555663) rotate(0 -339.4475854463599 -14.779813621076187)"><path d="M-0.22 0.17 C-101.08 -4.09, -491.85 -19.72, -604.81 -24.86 C-717.76 -30.01, -665.52 -30.06, -677.95 -30.72 M-1.8 -0.79 C-102.3 -5.48, -489.82 -21.86, -602.55 -26.73 C-715.29 -31.6, -665.41 -29.3, -678.22 -30.01" stroke="#000000" stroke-width="4" fill="none"></path></g><g transform="translate(689.522868382026 40.71625704555663) rotate(0 -339.4475854463599 -14.779813621076187)"><path d="M-653.73 -35.02 C-661.37 -34.89, -668.78 -30.23, -678.22 -30.01 M-653.73 -35.02 C-659.59 -34.68, -664.59 -33.35, -678.22 -30.01" stroke="#000000" stroke-width="4" fill="none"></path></g><g transform="translate(689.522868382026 40.71625704555663) rotate(0 -339.4475854463599 -14.779813621076187)"><path d="M-656.23 -18.1 C-663.16 -23.46, -669.76 -24.3, -678.22 -30.01 M-656.23 -18.1 C-661.52 -21.23, -666.01 -23.34, -678.22 -30.01" stroke="#000000" stroke-width="4" fill="none"></path></g></g><mask></mask></svg>