<?xml version="1.0" standalone="no"?>
<!DOCTYPE svg PUBLIC "-//W3C//DTD SVG 1.1//EN" "http://www.w3.org/Graphics/SVG/1.1/DTD/svg11.dtd">
<svg version="1.1" xmlns="http://www.w3.org/2000/svg" viewBox="0 0 1374.4025783991801 766.7101129232778" width="4123.20773519754" height="2300.1303387698335" filter="invert(93%) hue-rotate(180deg)"><!-- svg-source:excalidraw --><metadata></metadata><defs><style class="style-fonts">
      </style></defs><g transform="translate(263.7097245868854 750.7608238173598) rotate(344.6142371602373 45.693138668481424 -350.29704407770987)" stroke="none"><path fill="#000000" d="M -5.28,0 Q -5.28,0 -5.29,-2.55 -5.30,-5.10 -5.45,-7.89 -5.59,-10.67 -5.72,-12.85 -5.85,-15.02 -6.12,-18.13 -6.40,-21.24 -6.53,-23.58 -6.65,-25.91 -7.22,-28.65 -7.79,-31.40 -8.42,-33.62 -9.05,-35.84 -11.99,-39.68 -14.94,-43.53 -18.55,-48.26 -22.16,-52.99 -24.68,-56.06 -27.19,-59.13 -29.88,-62.54 -32.57,-65.95 -34.71,-68.17 -36.86,-70.38 -38.69,-72.43 -40.53,-74.48 -42.88,-76.44 -45.23,-78.40 -47.46,-81.41 -49.68,-84.42 -53.06,-88.94 -56.43,-93.45 -58.44,-96.58 -60.45,-99.70 -61.71,-101.44 -62.96,-103.18 -64.89,-104.60 -66.82,-106.02 -69.50,-107.59 -72.18,-109.16 -74.56,-112.33 -76.94,-115.50 -78.48,-118.16 -80.01,-120.82 -81.84,-125.24 -83.66,-129.66 -84.81,-132.03 -85.96,-134.40 -87.81,-137.40 -89.67,-140.40 -92.20,-144.47 -94.72,-148.54 -97.11,-151.65 -99.50,-154.75 -101.98,-157.55 -104.46,-160.35 -106.55,-162.38 -108.63,-164.42 -110.70,-166.41 -112.77,-168.40 -114.51,-170.24 -116.25,-172.07 -117.76,-173.76 -119.26,-175.45 -120.64,-177.07 -122.02,-178.70 -124.55,-182.08 -127.08,-185.47 -128.78,-187.87 -130.47,-190.27 -132.27,-193.40 -134.07,-196.53 -135.04,-198.71 -136.01,-200.89 -136.92,-203.15 -137.84,-205.42 -139.39,-209.14 -140.95,-212.86 -141.52,-215.40 -142.10,-217.94 -142.18,-220.39 -142.26,-222.84 -143.14,-226.17 -144.02,-229.51 -145.69,-233.32 -147.35,-237.14 -148.38,-239.09 -149.40,-241.03 -150.95,-243.52 -152.51,-246.00 -153.98,-248.20 -155.45,-250.40 -156.90,-252.57 -158.36,-254.74 -159.77,-256.56 -161.18,-258.38 -163.90,-262.05 -166.63,-265.73 -168.19,-267.19 -169.75,-268.65 -171.56,-271.89 -173.36,-275.13 -174.10,-277.38 -174.85,-279.63 -176.53,-283.09 -178.21,-286.55 -181.49,-291.13 -184.76,-295.71 -187.56,-299.24 -190.35,-302.77 -193.04,-305.85 -195.72,-308.92 -198.41,-311.77 -201.09,-314.62 -203.27,-316.66 -205.45,-318.70 -207.97,-321.12 -210.49,-323.54 -212.59,-325.45 -214.69,-327.35 -215.68,-329.72 -216.66,-332.10 -219.01,-335.92 -221.35,-339.74 -222.59,-341.52 -223.82,-343.29 -225.51,-345.44 -227.20,-347.59 -228.82,-349.32 -230.45,-351.06 -231.93,-352.67 -233.41,-354.28 -234.97,-356.22 -236.54,-358.16 -239.35,-359.01 -242.17,-359.87 -244.36,-360.48 -246.55,-361.10 -248.95,-362.65 -251.36,-364.20 -252.89,-365.82 -254.41,-367.44 -255.50,-369.32 -256.59,-371.21 -257.52,-373.67 -258.45,-376.12 -258.85,-378.32 -259.26,-380.52 -259.33,-382.77 -259.40,-385.02 -259.41,-387.21 -259.43,-389.40 -259.45,-391.67 -259.48,-393.95 -258.67,-396.92 -257.85,-399.89 -255.77,-402.37 -253.68,-404.85 -252.64,-408.13 -251.60,-411.42 -250.06,-414.30 -248.52,-417.19 -247.19,-419.49 -245.87,-421.80 -244.76,-424.81 -243.65,-427.81 -241.14,-430.21 -238.63,-432.61 -236.54,-433.14 -234.44,-433.68 -232.24,-433.75 -230.04,-433.82 -226.92,-432.93 -223.79,-432.03 -222.18,-430.65 -220.56,-429.26 -218.66,-427.62 -216.76,-425.98 -214.50,-424.98 -212.25,-423.97 -209.82,-422.17 -207.40,-420.37 -205.08,-419.51 -202.76,-418.64 -199.79,-417.05 -196.83,-415.47 -194.15,-414.10 -191.48,-412.74 -189.55,-411.68 -187.62,-410.62 -185.43,-409.65 -183.24,-408.68 -179.76,-408.16 -176.27,-407.64 -172.44,-406.30 -168.60,-404.97 -166.50,-404.20 -164.39,-403.43 -160.75,-400.90 -157.11,-398.36 -154.51,-396.59 -151.91,-394.82 -149.84,-393.26 -147.76,-391.70 -145.43,-389.48 -143.09,-387.26 -141.02,-385.35 -138.96,-383.45 -137.01,-381.33 -135.07,-379.21 -132.53,-376.24 -129.99,-373.27 -128.87,-371.19 -127.74,-369.11 -125.91,-366.95 -124.07,-364.79 -122.13,-362.16 -120.19,-359.53 -117.96,-357.56 -115.73,-355.60 -113.65,-353.86 -111.57,-352.12 -109.64,-350.60 -107.71,-349.08 -105.56,-347.12 -103.41,-345.17 -100.96,-343.36 -98.50,-341.56 -96.61,-339.96 -94.73,-338.37 -92.62,-336.46 -90.50,-334.55 -87.61,-332.00 -84.72,-329.45 -82.60,-327.04 -80.48,-324.62 -78.59,-322.53 -76.71,-320.43 -73.70,-318.12 -70.69,-315.82 -68.54,-314.35 -66.39,-312.87 -64.48,-311.59 -62.56,-310.31 -59.52,-308.56 -56.48,-306.80 -54.46,-305.72 -52.44,-304.65 -50.04,-302.74 -47.63,-300.83 -45.46,-299.34 -43.29,-297.84 -40.95,-297.91 -38.61,-297.97 -35.92,-296.74 -33.23,-295.52 -30.16,-296.20 -27.09,-296.89 -24.60,-296.63 -22.12,-296.37 -24.13,-295.17 -26.14,-293.98 -25.06,-295.92 -23.97,-297.87 -23.65,-300.84 -23.33,-303.81 -22.85,-306.45 -22.38,-309.10 -22.26,-311.97 -22.14,-314.85 -22.04,-318.62 -21.93,-322.39 -21.91,-325.42 -21.89,-328.45 -21.31,-332.66 -20.73,-336.87 -20.19,-339.36 -19.65,-341.86 -17.68,-346.28 -15.70,-350.70 -14.30,-354.16 -12.89,-357.61 -11.80,-360.50 -10.71,-363.39 -10.01,-366.11 -9.32,-368.83 -8.84,-371.05 -8.36,-373.26 -8.26,-375.88 -8.16,-378.50 -8.06,-383.75 -7.96,-389.00 -8.35,-392.38 -8.74,-395.76 -9.42,-399.60 -10.10,-403.44 -11.00,-406.81 -11.90,-410.17 -12.49,-412.76 -13.07,-415.35 -13.59,-418.14 -14.11,-420.94 -14.35,-425.18 -14.59,-429.43 -14.47,-432.83 -14.34,-436.23 -14.01,-439.75 -13.68,-443.26 -13.23,-446.58 -12.77,-449.90 -12.65,-452.46 -12.54,-455.03 -12.20,-457.74 -11.86,-460.44 -11.78,-462.66 -11.70,-464.88 -11.36,-467.47 -11.02,-470.07 -10.93,-472.25 -10.84,-474.44 -10.91,-477.04 -10.97,-479.63 -11.12,-482.21 -11.27,-484.78 -11.27,-487.07 -11.26,-489.35 -10.86,-493.88 -10.46,-498.40 -9.78,-503.37 -9.10,-508.33 -8.35,-514.67 -7.60,-521.01 -7.24,-525.09 -6.88,-529.16 -6.81,-532.64 -6.75,-536.12 -6.69,-539.82 -6.63,-543.53 -6.93,-546.63 -7.24,-549.72 -7.44,-552.45 -7.64,-555.19 -7.37,-560.37 -7.09,-565.56 -7.03,-569.20 -6.98,-572.84 -6.78,-578.14 -6.59,-583.45 -6.50,-587.48 -6.42,-591.50 -6.53,-594.56 -6.65,-597.63 -6.95,-600.55 -7.25,-603.47 -7.48,-606.24 -7.71,-609.02 -7.31,-612.40 -6.91,-615.78 -5.73,-620.13 -4.55,-624.47 -4.04,-628.33 -3.54,-632.18 -3.39,-635.61 -3.24,-639.04 -3.23,-642.26 -3.21,-645.48 -3.33,-647.78 -3.44,-650.09 -3.43,-653.81 -3.41,-657.53 -2.85,-660.12 -2.28,-662.71 -1.32,-665.71 -0.35,-668.70 1.25,-671.25 2.86,-673.80 4.31,-676.60 5.76,-679.39 6.61,-681.48 7.47,-683.57 8.82,-686.19 10.17,-688.81 11.45,-690.87 12.73,-692.94 16.26,-694.29 19.78,-695.64 22.28,-695.72 24.77,-695.80 27.18,-695.86 29.59,-695.92 32.77,-697.35 35.96,-698.77 38.82,-700.33 41.68,-701.89 44.12,-702.53 46.56,-703.18 49.12,-703.24 51.68,-703.30 54.22,-702.62 56.77,-701.95 58.77,-700.77 60.77,-699.59 63.38,-697.14 65.99,-694.68 67.35,-692.75 68.71,-690.81 70.25,-688.26 71.78,-685.71 72.96,-682.88 74.14,-680.05 74.84,-677.70 75.53,-675.35 76.09,-672.86 76.64,-670.36 76.54,-666.52 76.44,-662.68 76.86,-659.82 77.29,-656.97 78.07,-654.24 78.84,-651.51 79.71,-649.02 80.58,-646.52 82.01,-642.95 83.44,-639.38 84.10,-636.76 84.75,-634.15 85.65,-629.89 86.56,-625.63 87.14,-623.05 87.73,-620.48 88.45,-616.45 89.17,-612.41 89.23,-609.26 89.29,-606.10 89.33,-603.76 89.37,-601.42 89.40,-598.91 89.43,-596.40 89.45,-593.99 89.47,-591.57 89.46,-588.43 89.46,-585.30 89.49,-582.92 89.51,-580.54 89.54,-578.29 89.57,-576.04 88.55,-571.93 87.53,-567.82 86.72,-565.86 85.91,-563.89 85.84,-560.46 85.77,-557.03 85.60,-554.05 85.42,-551.08 84.98,-546.26 84.54,-541.44 84.60,-536.00 84.66,-530.57 85.68,-523.38 86.70,-516.19 87.41,-511.62 88.12,-507.05 89.00,-502.82 89.88,-498.59 90.91,-495.06 91.93,-491.54 92.50,-487.95 93.06,-484.37 93.65,-481.63 94.23,-478.90 94.35,-476.21 94.48,-473.51 94.03,-470.59 93.59,-467.68 93.13,-465.24 92.67,-462.79 92.80,-460.48 92.93,-458.18 93.05,-455.71 93.18,-453.24 93.31,-450.53 93.44,-447.82 93.52,-445.56 93.60,-443.29 93.69,-440.54 93.78,-437.78 93.85,-435.18 93.91,-432.57 94.32,-429.87 94.72,-427.17 95.00,-424.61 95.27,-422.04 97.35,-422.90 99.43,-423.76 100.58,-426.06 101.74,-428.36 102.99,-430.82 104.24,-433.29 105.47,-435.78 106.70,-438.27 108.28,-442.32 109.86,-446.37 110.60,-449.96 111.35,-453.54 111.89,-456.52 112.43,-459.50 112.70,-462.23 112.96,-464.97 113.64,-468.71 114.32,-472.46 114.53,-475.19 114.75,-477.91 115.02,-480.05 115.30,-482.18 115.29,-484.51 115.29,-486.84 115.26,-490.80 115.24,-494.77 115.18,-498.31 115.11,-501.84 115.03,-504.58 114.95,-507.31 115.21,-510.46 115.47,-513.61 117.12,-516.07 118.77,-518.54 119.04,-522.06 119.32,-525.58 119.84,-529.72 120.35,-533.86 120.69,-536.11 121.03,-538.36 121.14,-540.66 121.25,-542.96 122.46,-548.94 123.67,-554.93 124.88,-558.87 126.09,-562.81 126.97,-566.54 127.86,-570.28 128.19,-573.52 128.52,-576.75 128.90,-579.72 129.29,-582.68 129.38,-585.05 129.46,-587.43 129.60,-590.54 129.73,-593.65 130.53,-596.34 131.32,-599.02 131.30,-601.29 131.29,-603.55 131.86,-606.45 132.43,-609.34 134.03,-614.33 135.63,-619.31 136.96,-623.20 138.28,-627.09 139.41,-630.53 140.53,-633.97 141.16,-637.39 141.80,-640.81 142.27,-642.93 142.74,-645.05 143.04,-647.44 143.34,-649.83 143.27,-652.92 143.20,-656.02 143.90,-659.29 144.61,-662.55 145.47,-665.28 146.32,-668.00 147.32,-670.84 148.31,-673.69 148.96,-676.11 149.62,-678.53 150.17,-680.91 150.73,-683.28 151.54,-687.05 152.35,-690.82 153.01,-693.55 153.68,-696.27 154.65,-699.26 155.62,-702.25 156.77,-704.56 157.91,-706.87 159.52,-709.40 161.13,-711.93 163.27,-713.95 165.42,-715.97 167.75,-717.79 170.09,-719.61 172.66,-721.10 175.23,-722.58 177.61,-723.20 179.98,-723.81 183.72,-723.56 187.45,-723.31 189.42,-722.20 191.39,-721.10 193.68,-719.86 195.98,-718.63 198.67,-718.11 201.37,-717.59 203.06,-715.97 204.75,-714.34 206.38,-712.20 208.00,-710.05 209.13,-708.18 210.25,-706.30 211.18,-703.33 212.10,-700.36 212.90,-698.00 213.70,-695.64 213.81,-692.24 213.92,-688.84 213.87,-685.63 213.82,-682.43 213.77,-679.31 213.71,-676.20 213.64,-674.05 213.57,-671.90 213.50,-669.63 213.42,-667.37 213.29,-664.63 213.16,-661.89 213.07,-657.51 212.99,-653.12 213.02,-650.14 213.06,-647.15 213.00,-642.89 212.93,-638.63 212.98,-635.72 213.02,-632.82 213.07,-630.18 213.11,-627.55 213.14,-624.70 213.17,-621.85 212.97,-619.46 212.77,-617.06 212.73,-614.57 212.70,-612.08 212.64,-609.87 212.59,-607.65 212.31,-605.38 212.03,-603.10 211.95,-600.68 211.86,-598.26 211.43,-593.68 211.00,-589.09 210.50,-584.53 209.99,-579.97 209.43,-575.22 208.87,-570.47 208.16,-567.20 207.45,-563.93 207.13,-561.15 206.80,-558.38 205.83,-554.73 204.85,-551.09 204.13,-548.21 203.42,-545.33 202.22,-541.64 201.03,-537.94 200.30,-535.10 199.58,-532.26 198.70,-529.49 197.82,-526.72 197.21,-523.41 196.60,-520.10 196.65,-517.21 196.70,-514.32 196.12,-510.81 195.54,-507.30 195.27,-504.64 195.00,-501.98 194.91,-499.64 194.82,-497.30 194.70,-494.51 194.58,-491.71 194.53,-489.17 194.48,-486.62 194.46,-484.19 194.43,-481.75 194.42,-479.36 194.40,-476.98 194.46,-473.22 194.51,-469.46 193.94,-467.17 193.38,-464.88 192.99,-462.78 192.60,-460.68 191.87,-458.45 191.15,-456.22 190.57,-453.92 189.98,-451.62 189.23,-449.40 188.49,-447.18 188.09,-444.92 187.68,-442.65 186.94,-439.37 186.19,-436.09 185.86,-433.52 185.53,-430.95 185.25,-428.51 184.98,-426.07 184.70,-423.86 184.41,-421.65 184.45,-419.29 184.49,-416.93 185.02,-414.06 185.56,-411.20 185.92,-409.01 186.28,-406.82 184.70,-408.52 183.12,-410.22 180.58,-409.47 178.04,-408.72 179.34,-410.70 180.65,-412.68 182.32,-415.40 184.00,-418.11 185.09,-420.20 186.18,-422.29 187.88,-425.64 189.58,-428.99 190.36,-431.06 191.14,-433.13 191.11,-436.98 191.08,-440.83 191.38,-442.99 191.67,-445.15 192.48,-448.01 193.30,-450.87 194.71,-455.31 196.13,-459.75 196.74,-461.82 197.35,-463.89 198.60,-468.11 199.84,-472.33 201.19,-475.62 202.53,-478.90 203.52,-481.68 204.51,-484.45 204.53,-487.15 204.54,-489.85 204.88,-492.50 205.21,-495.15 205.29,-498.75 205.38,-502.36 205.71,-506.69 206.05,-511.03 206.58,-513.84 207.11,-516.66 207.64,-520.92 208.16,-525.18 208.65,-527.63 209.15,-530.08 209.90,-533.25 210.65,-536.41 210.92,-538.59 211.20,-540.77 212.61,-543.92 214.02,-547.07 214.88,-550.10 215.75,-553.14 216.40,-556.33 217.05,-559.53 217.44,-561.64 217.82,-563.76 218.72,-566.44 219.62,-569.13 220.07,-573.50 220.53,-577.86 222.51,-582.64 224.50,-587.41 227.12,-592.99 229.75,-598.58 232.04,-603.67 234.32,-608.76 236.02,-613.14 237.72,-617.51 239.40,-621.30 241.08,-625.09 242.63,-628.82 244.19,-632.56 244.89,-634.75 245.59,-636.94 246.26,-639.74 246.94,-642.55 247.25,-644.84 247.56,-647.12 247.34,-650.24 247.11,-653.37 246.96,-655.49 246.81,-657.61 247.08,-659.82 247.36,-662.02 248.32,-664.31 249.28,-666.61 250.49,-668.84 251.71,-671.08 253.08,-673.24 254.45,-675.39 257.14,-678.52 259.82,-681.64 262.41,-682.93 264.99,-684.22 267.69,-685.14 270.38,-686.05 274.38,-686.40 278.38,-686.74 281.10,-686.77 283.81,-686.79 286.31,-685.79 288.80,-684.80 290.80,-682.13 292.79,-679.46 294.01,-675.57 295.23,-671.68 296.19,-668.36 297.15,-665.03 297.91,-662.14 298.68,-659.24 299.27,-657.12 299.87,-655.00 300.43,-652.68 300.99,-650.36 301.28,-647.68 301.57,-644.99 301.68,-642.50 301.79,-640.00 301.83,-637.58 301.88,-635.17 301.52,-632.31 301.16,-629.46 300.78,-625.20 300.40,-620.95 299.02,-614.28 297.65,-607.61 296.60,-602.06 295.54,-596.51 294.55,-592.61 293.55,-588.71 293.15,-586.43 292.74,-584.15 292.13,-579.78 291.52,-575.40 290.20,-569.77 288.87,-564.14 287.88,-558.97 286.90,-553.80 286.05,-549.26 285.21,-544.72 284.70,-541.37 284.18,-538.02 283.85,-535.60 283.53,-533.19 282.92,-527.76 282.31,-522.33 281.49,-517.57 280.67,-512.80 280.24,-508.52 279.82,-504.24 279.85,-501.46 279.88,-498.68 279.24,-493.14 278.60,-487.59 276.81,-481.75 275.03,-475.91 273.29,-471.59 271.56,-467.28 270.82,-464.57 270.09,-461.86 269.54,-459.13 268.98,-456.40 268.60,-452.97 268.23,-449.55 268.03,-447.25 267.82,-444.95 267.79,-441.90 267.76,-438.85 267.78,-436.55 267.81,-434.24 267.60,-431.22 267.38,-428.19 267.13,-425.73 266.88,-423.27 266.87,-420.17 266.86,-417.06 266.64,-414.30 266.42,-411.53 265.93,-408.52 265.44,-405.52 265.20,-402.06 264.96,-398.61 263.11,-392.90 261.25,-387.19 259.22,-382.12 257.18,-377.04 255.81,-373.55 254.43,-370.05 253.86,-367.95 253.28,-365.85 252.29,-362.63 251.30,-359.42 250.41,-356.95 249.52,-354.49 249.26,-351.62 248.99,-348.75 248.82,-345.78 248.65,-342.82 247.53,-344.66 246.42,-346.51 248.89,-346.72 251.35,-346.93 252.86,-348.73 254.36,-350.52 256.10,-352.42 257.83,-354.31 260.83,-357.49 263.83,-360.66 265.95,-362.77 268.07,-364.88 268.19,-367.44 268.31,-370.01 268.59,-372.54 268.87,-375.07 269.18,-377.82 269.49,-380.57 269.99,-383.71 270.50,-386.85 271.61,-390.71 272.72,-394.56 273.84,-397.98 274.96,-401.39 276.23,-405.05 277.50,-408.71 278.64,-412.10 279.79,-415.48 280.76,-418.34 281.73,-421.21 282.37,-423.94 283.00,-426.67 283.18,-430.34 283.35,-434.01 283.22,-436.62 283.08,-439.23 283.09,-441.75 283.10,-444.27 283.96,-448.15 284.81,-452.03 287.07,-457.32 289.33,-462.60 291.07,-468.04 292.82,-473.47 294.72,-478.28 296.61,-483.10 297.98,-486.84 299.35,-490.59 300.25,-493.26 301.16,-495.94 301.97,-499.21 302.78,-502.48 303.16,-505.31 303.54,-508.13 303.41,-511.32 303.28,-514.51 303.15,-517.32 303.02,-520.12 303.50,-523.63 303.98,-527.14 304.93,-529.84 305.87,-532.53 307.71,-534.90 309.54,-537.28 311.44,-539.70 313.33,-542.13 315.81,-542.83 318.28,-543.53 320.55,-543.64 322.81,-543.76 325.45,-543.74 328.09,-543.72 330.23,-542.91 332.38,-542.10 334.26,-540.24 336.15,-538.37 338.35,-536.20 340.56,-534.03 341.85,-532.33 343.14,-530.63 343.80,-527.66 344.46,-524.70 344.58,-519.33 344.71,-513.96 344.64,-509.14 344.58,-504.31 344.79,-498.68 345.00,-493.05 345.31,-487.05 345.63,-481.05 345.67,-475.51 345.71,-469.97 345.65,-464.74 345.59,-459.51 345.58,-455.52 345.57,-451.53 345.76,-448.90 345.95,-446.28 346.26,-443.44 346.58,-440.60 346.77,-437.82 346.96,-435.03 346.68,-429.06 346.41,-423.10 346.19,-415.52 345.98,-407.94 345.83,-401.16 345.67,-394.38 345.98,-387.35 346.28,-380.33 346.38,-372.25 346.48,-364.16 346.49,-359.30 346.51,-354.44 346.59,-350.60 346.67,-346.75 346.50,-343.20 346.32,-339.64 346.15,-337.38 345.99,-335.12 345.26,-332.04 344.52,-328.97 343.67,-326.48 342.82,-324.00 341.46,-320.99 340.10,-317.99 338.82,-315.60 337.54,-313.21 335.79,-311.66 334.04,-310.11 331.95,-306.37 329.86,-302.62 326.51,-296.93 323.17,-291.24 320.49,-285.45 317.82,-279.65 315.21,-274.72 312.60,-269.79 310.86,-265.58 309.12,-261.37 308.05,-258.46 306.97,-255.55 306.44,-253.47 305.91,-251.40 305.22,-249.11 304.53,-246.82 303.35,-243.37 302.18,-239.92 300.57,-232.78 298.96,-225.65 297.34,-218.18 295.72,-210.71 293.21,-200.32 290.69,-189.93 289.61,-184.19 288.53,-178.45 287.36,-173.58 286.19,-168.71 285.55,-165.29 284.90,-161.88 284.81,-159.23 284.72,-156.59 283.54,-150.65 282.37,-144.72 280.50,-139.60 278.63,-134.48 275.95,-127.26 273.27,-120.03 270.27,-111.94 267.26,-103.84 264.25,-96.15 261.24,-88.46 259.31,-82.93 257.37,-77.41 255.49,-72.66 253.61,-67.91 252.79,-64.97 251.97,-62.03 251.39,-59.87 250.80,-57.70 250.69,-53.59 250.57,-49.49 249.90,-43.81 249.24,-38.14 248.89,-32.99 248.55,-27.84 248.36,-22.77 248.16,-17.71 247.68,-13.10 247.19,-8.50 247.16,-5.28 247.13,-2.06 246.65,0.98 246.17,4.02 245.85,6.19 245.52,8.36 244.75,10.98 243.97,13.60 243.32,15.49 242.66,17.37 242.34,18.04 242.01,18.71 241.49,19.24 240.97,19.77 240.31,20.11 239.64,20.45 238.91,20.55 238.17,20.66 237.44,20.53 236.71,20.39 236.05,20.03 235.40,19.67 234.90,19.12 234.40,18.57 234.10,17.89 233.80,17.21 233.73,16.47 233.67,15.73 233.84,15.01 234.01,14.28 234.41,13.65 234.80,13.02 235.38,12.55 235.95,12.08 236.65,11.82 237.35,11.55 238.09,11.53 238.83,11.50 239.55,11.71 240.26,11.92 240.87,12.35 241.48,12.78 241.92,13.38 242.35,13.98 242.58,14.69 242.80,15.40 242.79,16.14 242.78,16.89 242.53,17.59 242.28,18.29 241.82,18.87 241.35,19.46 240.73,19.86 240.11,20.27 239.39,20.46 238.67,20.64 237.92,20.59 237.18,20.54 236.50,20.25 235.81,19.96 235.25,19.47 234.69,18.98 234.32,18.33 233.95,17.69 233.80,16.96 233.66,16.23 233.75,15.49 233.84,14.75 233.84,14.75 233.84,14.75 234.65,12.53 235.46,10.30 236.58,8.40 237.70,6.50 238.35,4.48 239.01,2.45 239.73,0.01 240.45,-2.42 240.76,-5.73 241.06,-9.04 241.37,-13.42 241.68,-17.81 241.64,-22.95 241.61,-28.09 241.65,-33.42 241.69,-38.75 241.93,-44.20 242.16,-49.65 243.09,-54.94 244.02,-60.24 244.97,-62.18 245.92,-64.12 247.12,-67.04 248.32,-69.96 250.09,-74.62 251.86,-79.28 253.73,-84.95 255.60,-90.61 258.45,-98.29 261.30,-105.98 264.11,-114.12 266.92,-122.27 269.31,-129.50 271.71,-136.74 273.20,-141.88 274.69,-147.02 275.60,-150.23 276.51,-153.44 276.75,-155.58 276.99,-157.72 277.82,-160.50 278.65,-163.27 279.53,-166.65 280.40,-170.02 281.41,-174.77 282.42,-179.52 283.36,-185.46 284.30,-191.40 286.56,-201.73 288.81,-212.05 290.11,-219.59 291.41,-227.13 292.69,-234.77 293.97,-242.41 294.99,-246.15 296.00,-249.88 297.16,-251.95 298.33,-254.02 299.26,-256.20 300.20,-258.38 301.47,-261.08 302.75,-263.78 304.35,-268.40 305.95,-273.02 308.11,-277.90 310.27,-282.78 312.63,-289.14 315.00,-295.50 317.84,-301.69 320.68,-307.87 323.83,-313.39 326.99,-318.90 328.93,-320.84 330.88,-322.78 332.01,-324.66 333.14,-326.54 334.27,-328.41 335.40,-330.27 336.42,-332.18 337.43,-334.09 338.60,-337.14 339.78,-340.19 340.17,-343.45 340.56,-346.70 340.58,-350.53 340.60,-354.35 340.46,-359.19 340.32,-364.02 340.06,-371.98 339.80,-379.94 339.25,-387.16 338.71,-394.38 338.56,-401.16 338.40,-407.94 338.19,-415.52 337.98,-423.10 337.70,-429.06 337.42,-435.02 337.61,-437.80 337.79,-440.57 338.09,-443.40 338.38,-446.22 338.53,-448.83 338.67,-451.44 338.57,-455.40 338.47,-459.36 338.19,-464.48 337.91,-469.60 337.42,-474.88 336.94,-480.16 336.03,-486.08 335.11,-492.00 334.12,-497.67 333.13,-503.35 332.24,-508.38 331.35,-513.42 331.01,-516.27 330.68,-519.12 329.90,-522.34 329.12,-525.56 327.13,-527.72 325.14,-529.88 322.73,-530.85 320.31,-531.82 318.44,-529.37 316.58,-526.93 315.77,-524.86 314.97,-522.79 314.65,-519.95 314.33,-517.10 314.16,-514.13 314.00,-511.15 313.69,-507.45 313.38,-503.75 311.66,-500.49 309.94,-497.24 309.07,-495.18 308.21,-493.11 307.08,-490.71 305.95,-488.31 304.71,-484.49 303.47,-480.66 302.01,-476.00 300.55,-471.34 299.16,-465.42 297.78,-459.49 296.35,-454.78 294.92,-450.06 294.47,-447.14 294.02,-444.21 293.86,-440.26 293.71,-436.31 293.31,-432.80 292.91,-429.30 292.47,-426.90 292.04,-424.51 291.26,-421.33 290.48,-418.16 289.52,-415.47 288.55,-412.78 287.63,-409.45 286.70,-406.12 285.87,-402.33 285.04,-398.55 284.30,-395.35 283.55,-392.16 283.07,-388.81 282.58,-385.47 282.40,-382.59 282.22,-379.71 281.79,-376.84 281.37,-373.96 281.23,-371.64 281.08,-369.32 280.95,-367.00 280.81,-364.67 279.22,-360.68 277.63,-356.68 275.20,-354.36 272.76,-352.04 270.10,-349.14 267.43,-346.24 265.62,-343.92 263.80,-341.59 261.65,-339.30 259.49,-337.01 256.78,-335.48 254.07,-333.94 250.94,-333.68 247.82,-333.41 245.54,-333.88 243.26,-334.34 240.92,-335.38 238.59,-336.43 237.40,-339.77 236.22,-343.12 236.67,-345.59 237.12,-348.07 237.47,-350.49 237.81,-352.92 238.59,-355.70 239.37,-358.48 240.53,-360.74 241.69,-363.00 243.00,-365.89 244.32,-368.77 245.13,-370.91 245.93,-373.04 247.02,-376.53 248.10,-380.01 249.35,-384.99 250.60,-389.97 251.39,-394.38 252.18,-398.79 252.12,-402.72 252.07,-406.65 252.65,-409.42 253.24,-412.19 253.52,-414.73 253.80,-417.27 253.92,-419.77 254.04,-422.26 254.41,-424.76 254.78,-427.25 255.18,-429.70 255.58,-432.15 255.73,-434.67 255.87,-437.19 256.23,-439.66 256.59,-442.13 257.19,-445.52 257.80,-448.90 258.31,-451.38 258.81,-453.85 259.74,-456.29 260.66,-458.73 261.85,-461.45 263.04,-464.17 264.09,-466.90 265.14,-469.64 266.51,-473.75 267.87,-477.86 269.21,-483.50 270.54,-489.13 271.35,-494.06 272.15,-498.98 272.40,-501.82 272.65,-504.66 272.74,-509.21 272.84,-513.77 273.23,-518.84 273.62,-523.91 274.16,-526.93 274.71,-529.95 275.30,-532.37 275.90,-534.78 276.55,-537.03 277.20,-539.28 277.88,-542.52 278.56,-545.75 279.13,-550.34 279.71,-554.92 280.35,-560.28 281.00,-565.64 281.81,-571.24 282.63,-576.83 283.52,-581.50 284.41,-586.16 285.08,-588.33 285.74,-590.51 286.47,-594.09 287.20,-597.67 287.70,-603.36 288.21,-609.05 288.81,-615.29 289.42,-621.53 289.45,-625.03 289.48,-628.52 289.97,-631.75 290.46,-634.99 290.42,-637.26 290.38,-639.53 290.14,-643.63 289.89,-647.73 288.86,-651.94 287.83,-656.14 287.04,-658.66 286.26,-661.18 284.96,-664.24 283.67,-667.29 282.59,-670.35 281.52,-673.42 278.71,-673.34 275.90,-673.26 273.16,-672.70 270.43,-672.14 268.26,-670.52 266.10,-668.90 264.67,-667.22 263.23,-665.54 261.96,-663.63 260.68,-661.72 259.49,-658.60 258.29,-655.48 258.14,-653.03 257.98,-650.59 257.61,-647.90 257.25,-645.20 256.51,-642.97 255.77,-640.73 254.27,-637.36 252.77,-633.98 251.76,-632.00 250.75,-630.03 249.36,-626.14 247.97,-622.25 246.60,-618.64 245.22,-615.02 243.91,-610.31 242.59,-605.59 240.87,-600.23 239.14,-594.87 237.40,-589.39 235.66,-583.91 234.34,-577.48 233.03,-571.04 232.96,-568.07 232.89,-565.09 231.98,-562.38 231.06,-559.66 230.71,-557.36 230.36,-555.05 229.65,-551.90 228.94,-548.75 228.01,-546.30 227.07,-543.85 225.46,-541.03 223.85,-538.21 223.38,-535.72 222.90,-533.24 222.15,-530.54 221.39,-527.84 220.79,-523.57 220.19,-519.30 220.02,-517.06 219.86,-514.82 219.60,-512.20 219.34,-509.58 219.21,-505.94 219.07,-502.31 219.10,-498.53 219.12,-494.75 218.70,-492.22 218.27,-489.69 218.19,-486.99 218.10,-484.29 217.73,-482.13 217.35,-479.98 216.31,-477.03 215.27,-474.09 213.60,-471.40 211.93,-468.71 210.85,-464.64 209.78,-460.58 209.17,-458.08 208.56,-455.58 207.51,-451.60 206.45,-447.62 205.85,-444.21 205.24,-440.79 205.26,-437.97 205.29,-435.15 205.17,-432.70 205.05,-430.25 204.24,-427.95 203.43,-425.65 202.14,-422.78 200.86,-419.90 199.93,-417.61 199.00,-415.33 197.38,-412.27 195.76,-409.22 194.64,-407.29 193.51,-405.37 191.80,-402.57 190.08,-399.77 186.31,-397.59 182.54,-395.41 180.27,-395.85 178.01,-396.29 176.09,-398.15 174.17,-400.02 172.94,-402.80 171.71,-405.58 171.16,-408.18 170.62,-410.78 170.34,-414.39 170.05,-418.01 170.14,-420.24 170.22,-422.47 170.59,-424.73 170.95,-426.99 171.31,-430.64 171.66,-434.28 172.40,-437.62 173.14,-440.96 173.85,-444.00 174.57,-447.03 175.29,-449.54 176.01,-452.05 177.35,-455.28 178.68,-458.50 179.68,-461.31 180.68,-464.12 181.68,-466.89 182.69,-469.66 182.75,-473.32 182.80,-476.98 182.79,-479.38 182.78,-481.77 182.76,-484.21 182.74,-486.66 182.70,-489.22 182.67,-491.79 182.59,-494.65 182.51,-497.51 182.50,-500.12 182.49,-502.73 183.16,-506.55 183.83,-510.37 184.40,-512.44 184.98,-514.50 185.18,-517.16 185.39,-519.82 185.96,-522.76 186.53,-525.71 187.19,-527.80 187.85,-529.89 188.62,-532.28 189.38,-534.68 190.03,-537.62 190.67,-540.56 191.31,-544.09 191.94,-547.62 192.44,-550.81 192.93,-554.00 193.41,-556.32 193.89,-558.65 194.10,-561.32 194.30,-564.00 195.17,-566.75 196.05,-569.50 196.69,-572.95 197.33,-576.39 197.43,-578.95 197.53,-581.52 197.75,-583.63 197.98,-585.75 198.31,-590.11 198.64,-594.47 198.69,-598.19 198.74,-601.91 199.07,-604.79 199.40,-607.68 199.31,-612.00 199.23,-616.31 199.61,-619.11 199.99,-621.90 200.01,-624.72 200.04,-627.55 200.09,-630.18 200.13,-632.82 200.18,-635.72 200.22,-638.63 200.16,-642.89 200.10,-647.15 200.13,-650.14 200.17,-653.12 200.09,-657.51 200.00,-661.89 199.87,-664.63 199.74,-667.37 199.66,-669.63 199.58,-671.90 199.46,-675.92 199.34,-679.94 199.31,-682.55 199.28,-685.16 199.23,-688.62 199.17,-692.09 198.34,-694.86 197.50,-697.64 196.56,-699.87 195.62,-702.09 193.77,-703.63 191.93,-705.16 189.12,-706.33 186.31,-707.51 184.39,-708.61 182.48,-709.71 180.38,-709.30 178.28,-708.89 176.30,-707.54 174.31,-706.19 172.32,-704.49 170.32,-702.79 168.78,-700.93 167.23,-699.07 166.07,-696.08 164.90,-693.10 164.04,-690.62 163.18,-688.14 162.16,-684.46 161.13,-680.77 160.52,-678.27 159.90,-675.77 159.18,-673.08 158.45,-670.39 157.60,-667.57 156.75,-664.74 156.05,-662.46 155.34,-660.18 154.85,-658.02 154.35,-655.87 154.31,-653.57 154.26,-651.27 153.59,-648.51 152.93,-645.74 151.98,-642.51 151.02,-639.27 149.71,-635.39 148.40,-631.51 147.40,-628.13 146.39,-624.74 145.49,-620.90 144.58,-617.06 143.71,-612.21 142.83,-607.35 142.36,-604.78 141.89,-602.21 140.93,-597.53 139.98,-592.85 139.42,-589.81 138.86,-586.77 138.60,-584.05 138.33,-581.34 137.88,-578.67 137.43,-576.01 137.18,-572.36 136.93,-568.72 136.46,-564.59 135.99,-560.46 135.40,-556.83 134.81,-553.21 134.52,-547.74 134.23,-542.26 133.98,-539.45 133.73,-536.64 133.49,-534.53 133.24,-532.42 133.07,-529.87 132.89,-527.32 132.31,-523.34 131.73,-519.36 130.58,-516.25 129.43,-513.14 128.38,-510.23 127.33,-507.31 127.24,-504.58 127.16,-501.84 127.09,-498.29 127.03,-494.75 127.02,-492.59 127.00,-490.43 126.75,-486.43 126.49,-482.43 125.93,-479.83 125.38,-477.23 125.23,-474.20 125.08,-471.17 124.89,-467.73 124.70,-464.30 124.63,-461.05 124.56,-457.81 124.30,-455.07 124.04,-452.32 123.75,-449.10 123.46,-445.89 122.85,-443.83 122.23,-441.78 121.50,-439.63 120.78,-437.48 120.05,-435.21 119.33,-432.94 118.37,-430.26 117.41,-427.58 115.85,-424.19 114.29,-420.81 112.58,-418.00 110.87,-415.20 108.17,-412.72 105.46,-410.23 103.12,-409.60 100.78,-408.97 98.57,-409.00 96.35,-409.04 94.21,-409.12 92.08,-409.20 89.87,-409.79 87.67,-410.37 85.92,-411.68 84.17,-412.99 82.87,-415.25 81.57,-417.51 81.13,-420.17 80.69,-422.83 80.69,-425.41 80.70,-427.99 80.35,-430.25 80.01,-432.51 80.06,-434.65 80.10,-436.79 80.19,-439.32 80.27,-441.84 80.34,-444.12 80.42,-446.39 80.51,-448.59 80.61,-450.79 80.76,-453.48 80.91,-456.16 81.09,-458.99 81.27,-461.82 81.59,-463.98 81.90,-466.14 83.14,-469.16 84.37,-472.19 85.08,-475.18 85.78,-478.17 85.84,-480.80 85.89,-483.42 85.57,-486.53 85.26,-489.63 84.21,-493.29 83.17,-496.94 81.96,-501.26 80.75,-505.57 79.62,-510.14 78.49,-514.72 76.87,-522.29 75.25,-529.86 74.47,-535.65 73.69,-541.44 73.25,-546.28 72.82,-551.12 72.67,-554.14 72.52,-557.15 72.39,-560.16 72.26,-563.16 73.10,-567.00 73.95,-570.85 74.90,-573.46 75.85,-576.07 75.87,-578.31 75.90,-580.54 75.93,-582.92 75.96,-585.30 75.95,-588.43 75.94,-591.57 75.97,-593.98 75.99,-596.40 76.03,-599.70 76.08,-602.99 76.09,-605.81 76.09,-608.64 76.12,-611.94 76.15,-615.24 75.52,-617.75 74.90,-620.25 74.05,-623.72 73.21,-627.19 72.23,-630.83 71.25,-634.48 69.73,-637.99 68.21,-641.50 67.04,-644.04 65.86,-646.58 65.07,-648.68 64.29,-650.77 63.47,-654.45 62.65,-658.13 62.35,-660.38 62.05,-662.64 62.43,-665.66 62.81,-668.68 61.57,-671.70 60.33,-674.72 59.09,-677.27 57.85,-679.82 56.64,-681.98 55.43,-684.14 53.89,-685.69 52.34,-687.25 50.30,-688.13 48.27,-689.01 45.73,-687.36 43.19,-685.71 40.90,-685.46 38.61,-685.22 36.63,-684.33 34.66,-683.44 32.19,-682.83 29.73,-682.21 27.31,-682.26 24.89,-682.30 22.40,-681.60 19.91,-680.89 18.81,-678.80 17.70,-676.70 16.07,-673.60 14.43,-670.49 12.41,-667.53 10.40,-664.57 9.18,-662.69 7.96,-660.80 6.98,-658.39 6.00,-655.98 5.52,-652.98 5.04,-649.98 4.87,-647.65 4.69,-645.32 4.58,-642.01 4.46,-638.69 4.29,-635.09 4.12,-631.49 3.89,-627.13 3.66,-622.77 3.09,-618.73 2.53,-614.69 2.21,-611.85 1.90,-609.01 1.67,-606.24 1.44,-603.47 1.14,-600.55 0.83,-597.63 0.72,-594.56 0.60,-591.50 0.69,-587.48 0.77,-583.45 0.97,-578.14 1.16,-572.84 1.22,-569.20 1.28,-565.56 1.55,-560.37 1.83,-555.18 1.62,-552.43 1.41,-549.68 1.05,-546.57 0.70,-543.45 0.68,-539.69 0.66,-535.92 0.54,-532.35 0.42,-528.77 0.35,-524.57 0.27,-520.38 0.00,-514.02 -0.26,-507.67 -0.30,-503.03 -0.34,-498.40 0.05,-493.87 0.45,-489.35 0.45,-487.06 0.46,-484.76 0.27,-482.05 0.08,-479.34 -0.16,-476.55 -0.42,-473.77 -0.63,-471.15 -0.85,-468.53 -1.23,-466.37 -1.62,-464.22 -1.85,-461.62 -2.08,-459.01 -2.47,-456.72 -2.87,-454.43 -3.08,-451.58 -3.30,-448.73 -3.63,-445.66 -3.97,-442.59 -4.10,-439.41 -4.23,-436.23 -4.10,-432.84 -3.97,-429.44 -4.11,-425.50 -4.24,-421.56 -4.25,-419.23 -4.26,-416.91 -4.00,-414.71 -3.74,-412.52 -2.65,-408.99 -1.57,-405.47 -0.38,-401.44 0.80,-397.41 1.72,-393.21 2.64,-389.00 2.81,-385.50 2.97,-382.01 2.58,-378.57 2.19,-375.13 1.82,-372.98 1.46,-370.83 0.85,-368.65 0.23,-366.47 -0.53,-363.23 -1.31,-359.98 -2.29,-357.16 -3.28,-354.35 -4.27,-350.72 -5.27,-347.10 -6.52,-341.25 -7.77,-335.39 -7.91,-331.92 -8.05,-328.44 -8.04,-325.40 -8.02,-322.35 -7.94,-318.49 -7.87,-314.63 -7.92,-311.20 -7.97,-307.78 -8.40,-304.83 -8.84,-301.89 -9.37,-298.43 -9.90,-294.98 -10.90,-292.12 -11.90,-289.27 -13.16,-287.21 -14.42,-285.14 -18.28,-283.46 -22.15,-281.78 -24.64,-282.08 -27.13,-282.39 -30.29,-282.34 -33.45,-282.28 -35.86,-282.33 -38.27,-282.39 -40.62,-282.91 -42.97,-283.43 -45.23,-283.85 -47.50,-284.26 -50.02,-285.60 -52.55,-286.94 -54.22,-288.62 -55.88,-290.31 -58.03,-291.77 -60.17,-293.23 -62.12,-294.32 -64.08,-295.41 -66.01,-296.65 -67.94,-297.90 -69.87,-299.14 -71.80,-300.39 -74.21,-302.01 -76.61,-303.62 -79.14,-305.55 -81.67,-307.49 -84.00,-309.05 -86.33,-310.61 -88.47,-312.94 -90.62,-315.27 -92.36,-317.28 -94.10,-319.30 -96.35,-321.20 -98.60,-323.10 -100.83,-325.25 -103.06,-327.40 -105.19,-329.21 -107.32,-331.03 -109.10,-332.42 -110.88,-333.80 -113.71,-336.34 -116.54,-338.87 -118.60,-340.57 -120.66,-342.28 -122.89,-344.19 -125.13,-346.11 -126.64,-347.64 -128.15,-349.16 -130.27,-351.66 -132.39,-354.17 -134.42,-356.66 -136.45,-359.15 -138.60,-362.43 -140.75,-365.71 -142.23,-368.02 -143.70,-370.33 -145.19,-371.89 -146.67,-373.45 -148.44,-375.42 -150.21,-377.39 -151.83,-379.20 -153.44,-381.01 -155.68,-383.06 -157.92,-385.11 -160.68,-386.65 -163.45,-388.19 -166.07,-389.56 -168.69,-390.93 -172.71,-392.19 -176.73,-393.44 -179.19,-393.39 -181.65,-393.34 -185.62,-394.45 -189.59,-395.57 -192.07,-396.72 -194.55,-397.87 -196.68,-399.03 -198.81,-400.18 -200.85,-401.26 -202.90,-402.34 -205.97,-403.80 -209.04,-405.27 -211.37,-406.25 -213.71,-407.24 -216.76,-409.21 -219.82,-411.19 -221.86,-412.22 -223.90,-413.26 -226.34,-415.26 -228.78,-417.27 -230.07,-419.17 -231.36,-421.06 -232.43,-418.07 -233.51,-415.08 -234.82,-412.75 -236.14,-410.42 -237.41,-407.89 -238.68,-405.36 -239.81,-402.74 -240.94,-400.12 -243.03,-395.86 -245.12,-391.60 -245.12,-389.44 -245.12,-387.27 -245.11,-384.60 -245.10,-381.93 -244.85,-379.51 -244.60,-377.10 -242.73,-375.25 -240.86,-373.40 -237.71,-372.40 -234.56,-371.40 -232.53,-370.69 -230.50,-369.99 -228.79,-368.47 -227.08,-366.95 -225.67,-365.13 -224.26,-363.31 -222.88,-361.10 -221.50,-358.88 -219.93,-356.68 -218.35,-354.48 -216.67,-351.83 -214.98,-349.18 -213.65,-347.11 -212.32,-345.04 -210.92,-342.65 -209.51,-340.26 -207.98,-336.64 -206.45,-333.03 -205.18,-331.31 -203.91,-329.59 -201.95,-326.84 -199.99,-324.09 -197.96,-321.88 -195.93,-319.66 -193.10,-316.87 -190.27,-314.08 -187.26,-311.14 -184.25,-308.20 -180.92,-304.83 -177.58,-301.47 -173.40,-296.77 -169.21,-292.06 -166.29,-287.99 -163.37,-283.92 -162.63,-281.19 -161.89,-278.45 -159.68,-276.23 -157.47,-274.00 -154.97,-271.39 -152.46,-268.78 -150.71,-266.30 -148.96,-263.82 -147.60,-261.58 -146.24,-259.33 -144.87,-257.04 -143.51,-254.74 -142.05,-252.20 -140.58,-249.65 -138.76,-246.23 -136.94,-242.80 -135.45,-240.09 -133.95,-237.38 -132.60,-233.06 -131.25,-228.74 -130.68,-225.94 -130.11,-223.15 -130.05,-220.87 -129.98,-218.59 -129.43,-216.17 -128.89,-213.74 -128.01,-211.77 -127.14,-209.79 -125.48,-205.82 -123.82,-201.85 -122.45,-199.03 -121.07,-196.20 -119.61,-193.58 -118.15,-190.95 -116.21,-187.83 -114.26,-184.71 -111.86,-181.33 -109.46,-177.95 -108.07,-176.18 -106.69,-174.40 -104.69,-172.27 -102.69,-170.14 -100.69,-167.93 -98.69,-165.73 -95.95,-162.93 -93.21,-160.12 -90.27,-157.00 -87.33,-153.87 -84.29,-150.22 -81.25,-146.57 -78.48,-143.24 -75.71,-139.92 -73.50,-134.91 -71.30,-129.90 -69.80,-127.25 -68.30,-124.59 -66.91,-121.98 -65.52,-119.38 -63.75,-117.46 -61.98,-115.53 -59.76,-113.57 -57.55,-111.61 -55.22,-108.30 -52.90,-104.98 -50.72,-102.10 -48.54,-99.23 -46.48,-96.61 -44.41,-93.99 -42.65,-91.69 -40.89,-89.39 -39.00,-86.39 -37.10,-83.38 -35.53,-81.63 -33.96,-79.88 -32.46,-77.86 -30.96,-75.85 -28.84,-73.46 -26.71,-71.08 -23.75,-68.03 -20.78,-64.99 -17.86,-62.12 -14.93,-59.24 -10.83,-55.06 -6.73,-50.87 -2.94,-47.30 0.83,-43.73 2.25,-40.12 3.67,-36.51 4.22,-33.62 4.76,-30.73 5.11,-26.80 5.46,-22.87 5.66,-18.95 5.85,-15.02 5.72,-12.85 5.59,-10.67 5.45,-7.89 5.30,-5.10 5.29,-2.55 5.28,0 5.20,0.63 5.13,1.26 4.90,1.86 4.68,2.45 4.31,2.98 3.95,3.50 3.47,3.92 3.00,4.35 2.43,4.64 1.87,4.94 1.25,5.09 0.63,5.24 -0.00,5.24 -0.63,5.24 -1.25,5.09 -1.87,4.94 -2.43,4.64 -3.00,4.35 -3.48,3.92 -3.95,3.50 -4.31,2.98 -4.68,2.45 -4.90,1.86 -5.13,1.26 -5.20,0.63 -5.28,-0.00 -5.28,-0.00 L -5.28,0 Z"></path></g><g transform="translate(1111.8133088181385 758.6758255806544) rotate(17.018305745702776 -45.693138668481424 -350.2970440777108)" stroke="none"><path fill="#000000" d="M -5.28,0 Q -5.28,0 -5.29,-2.55 -5.30,-5.10 -5.45,-7.89 -5.59,-10.67 -5.72,-12.85 -5.85,-15.02 -5.66,-18.95 -5.46,-22.87 -5.11,-26.80 -4.76,-30.73 -4.22,-33.62 -3.67,-36.51 -2.25,-40.12 -0.83,-43.73 2.94,-47.30 6.73,-50.87 10.83,-55.06 14.93,-59.24 17.86,-62.12 20.78,-64.99 23.75,-68.03 26.71,-71.08 28.84,-73.46 30.96,-75.85 32.46,-77.86 33.96,-79.88 35.53,-81.63 37.10,-83.38 39.00,-86.39 40.89,-89.39 42.65,-91.69 44.41,-93.99 46.48,-96.61 48.54,-99.23 50.72,-102.10 52.90,-104.98 55.22,-108.30 57.55,-111.61 59.76,-113.57 61.98,-115.53 63.75,-117.46 65.52,-119.38 66.91,-121.98 68.30,-124.59 69.80,-127.25 71.30,-129.90 73.50,-134.91 75.71,-139.92 78.48,-143.24 81.25,-146.57 84.29,-150.22 87.33,-153.87 90.27,-157.00 93.21,-160.12 95.95,-162.93 98.69,-165.73 100.69,-167.93 102.69,-170.14 104.69,-172.27 106.69,-174.40 108.07,-176.18 109.46,-177.95 111.86,-181.33 114.26,-184.71 116.21,-187.83 118.15,-190.95 119.61,-193.58 121.07,-196.20 122.45,-199.03 123.82,-201.85 125.48,-205.82 127.14,-209.79 128.01,-211.77 128.89,-213.74 129.43,-216.17 129.98,-218.59 130.05,-220.87 130.11,-223.15 130.68,-225.94 131.25,-228.74 132.60,-233.06 133.95,-237.38 135.45,-240.09 136.94,-242.80 138.76,-246.23 140.58,-249.65 142.05,-252.20 143.51,-254.74 144.87,-257.04 146.24,-259.33 147.60,-261.58 148.96,-263.82 150.71,-266.30 152.46,-268.78 154.97,-271.39 157.47,-274.00 159.68,-276.23 161.89,-278.45 162.63,-281.19 163.37,-283.92 166.29,-287.99 169.21,-292.06 173.40,-296.77 177.58,-301.47 180.92,-304.83 184.25,-308.20 187.26,-311.14 190.27,-314.08 193.10,-316.87 195.93,-319.66 197.96,-321.88 199.99,-324.09 201.95,-326.84 203.91,-329.59 205.18,-331.31 206.45,-333.03 207.98,-336.64 209.51,-340.26 210.92,-342.65 212.32,-345.04 213.65,-347.11 214.98,-349.18 216.67,-351.83 218.35,-354.48 219.93,-356.68 221.50,-358.88 222.88,-361.10 224.26,-363.31 225.67,-365.13 227.08,-366.95 228.79,-368.47 230.50,-369.99 232.53,-370.69 234.56,-371.40 237.71,-372.40 240.86,-373.40 242.73,-375.25 244.60,-377.10 244.85,-379.51 245.10,-381.93 245.11,-384.60 245.12,-387.27 245.12,-389.44 245.12,-391.60 243.03,-395.86 240.94,-400.12 239.81,-402.74 238.68,-405.36 237.41,-407.89 236.14,-410.42 234.82,-412.75 233.51,-415.08 232.43,-418.07 231.36,-421.06 230.07,-419.17 228.78,-417.27 226.34,-415.26 223.90,-413.26 221.86,-412.22 219.82,-411.19 216.76,-409.21 213.71,-407.24 211.37,-406.25 209.04,-405.27 205.97,-403.80 202.90,-402.34 200.85,-401.26 198.81,-400.18 196.68,-399.03 194.55,-397.87 192.07,-396.72 189.59,-395.57 185.62,-394.45 181.65,-393.34 179.19,-393.39 176.73,-393.44 172.71,-392.19 168.69,-390.93 166.07,-389.56 163.45,-388.19 160.68,-386.65 157.92,-385.11 155.68,-383.06 153.44,-381.01 151.83,-379.20 150.21,-377.39 148.44,-375.42 146.67,-373.45 145.19,-371.89 143.70,-370.33 142.23,-368.02 140.75,-365.71 138.60,-362.43 136.45,-359.15 134.42,-356.66 132.39,-354.17 130.27,-351.66 128.15,-349.16 126.64,-347.64 125.13,-346.11 122.89,-344.19 120.66,-342.28 118.60,-340.57 116.54,-338.87 113.71,-336.34 110.88,-333.80 109.10,-332.42 107.32,-331.03 105.19,-329.21 103.06,-327.40 100.83,-325.25 98.60,-323.10 96.35,-321.20 94.10,-319.30 92.36,-317.28 90.62,-315.27 88.47,-312.94 86.33,-310.61 84.00,-309.05 81.67,-307.49 79.14,-305.55 76.61,-303.62 74.21,-302.01 71.80,-300.39 69.87,-299.14 67.94,-297.90 66.01,-296.65 64.08,-295.41 62.12,-294.32 60.17,-293.23 58.03,-291.77 55.88,-290.31 54.22,-288.62 52.55,-286.94 50.02,-285.60 47.50,-284.26 45.23,-283.85 42.97,-283.43 40.62,-282.91 38.27,-282.39 35.86,-282.33 33.45,-282.28 30.29,-282.34 27.13,-282.39 24.64,-282.08 22.15,-281.78 18.28,-283.46 14.42,-285.14 13.16,-287.21 11.90,-289.27 10.90,-292.12 9.90,-294.98 9.37,-298.43 8.84,-301.89 8.40,-304.83 7.97,-307.78 7.92,-311.20 7.87,-314.63 7.94,-318.49 8.02,-322.35 8.04,-325.40 8.05,-328.44 7.91,-331.92 7.77,-335.39 6.52,-341.25 5.27,-347.10 4.27,-350.72 3.28,-354.35 2.29,-357.16 1.31,-359.98 0.53,-363.23 -0.23,-366.47 -0.85,-368.65 -1.46,-370.83 -1.82,-372.98 -2.19,-375.13 -2.58,-378.57 -2.97,-382.01 -2.81,-385.50 -2.64,-389.00 -1.72,-393.21 -0.80,-397.41 0.38,-401.44 1.57,-405.47 2.65,-408.99 3.74,-412.52 4.00,-414.71 4.26,-416.91 4.25,-419.23 4.24,-421.56 4.11,-425.50 3.97,-429.44 4.10,-432.84 4.23,-436.23 4.10,-439.41 3.97,-442.59 3.63,-445.66 3.30,-448.73 3.08,-451.58 2.87,-454.43 2.47,-456.72 2.08,-459.01 1.85,-461.62 1.62,-464.22 1.23,-466.37 0.85,-468.53 0.63,-471.15 0.42,-473.77 0.16,-476.55 -0.08,-479.34 -0.27,-482.05 -0.46,-484.76 -0.45,-487.06 -0.45,-489.35 -0.05,-493.87 0.34,-498.40 0.30,-503.03 0.26,-507.67 -0.00,-514.02 -0.27,-520.38 -0.35,-524.57 -0.42,-528.77 -0.54,-532.35 -0.66,-535.92 -0.68,-539.69 -0.70,-543.45 -1.05,-546.57 -1.41,-549.68 -1.62,-552.43 -1.83,-555.18 -1.55,-560.37 -1.28,-565.56 -1.22,-569.20 -1.16,-572.84 -0.97,-578.14 -0.77,-583.45 -0.69,-587.48 -0.60,-591.50 -0.72,-594.56 -0.83,-597.63 -1.14,-600.55 -1.44,-603.47 -1.67,-606.24 -1.90,-609.01 -2.21,-611.85 -2.53,-614.69 -3.09,-618.73 -3.66,-622.77 -3.89,-627.13 -4.12,-631.49 -4.29,-635.09 -4.46,-638.69 -4.58,-642.01 -4.69,-645.32 -4.87,-647.65 -5.04,-649.98 -5.52,-652.98 -6.00,-655.98 -6.98,-658.39 -7.96,-660.80 -9.18,-662.69 -10.40,-664.57 -12.41,-667.53 -14.43,-670.49 -16.07,-673.60 -17.70,-676.70 -18.81,-678.80 -19.91,-680.89 -22.40,-681.60 -24.89,-682.30 -27.31,-682.26 -29.73,-682.21 -32.19,-682.83 -34.66,-683.44 -36.63,-684.33 -38.61,-685.22 -40.90,-685.46 -43.19,-685.71 -45.73,-687.36 -48.27,-689.01 -50.30,-688.13 -52.34,-687.25 -53.89,-685.69 -55.43,-684.14 -56.64,-681.98 -57.85,-679.82 -59.09,-677.27 -60.33,-674.72 -61.57,-671.70 -62.81,-668.68 -62.43,-665.66 -62.05,-662.64 -62.35,-660.38 -62.65,-658.13 -63.47,-654.45 -64.29,-650.77 -65.07,-648.68 -65.86,-646.58 -67.04,-644.04 -68.21,-641.50 -69.73,-637.99 -71.25,-634.48 -72.23,-630.83 -73.21,-627.19 -74.05,-623.72 -74.90,-620.25 -75.52,-617.75 -76.15,-615.24 -76.12,-611.94 -76.09,-608.64 -76.09,-605.81 -76.08,-602.99 -76.03,-599.70 -75.99,-596.40 -75.97,-593.98 -75.94,-591.57 -75.95,-588.43 -75.96,-585.30 -75.93,-582.92 -75.90,-580.54 -75.87,-578.31 -75.85,-576.07 -74.90,-573.46 -73.95,-570.85 -73.10,-567.00 -72.26,-563.16 -72.39,-560.16 -72.52,-557.15 -72.67,-554.14 -72.82,-551.12 -73.25,-546.28 -73.69,-541.44 -74.47,-535.65 -75.25,-529.86 -76.87,-522.29 -78.49,-514.72 -79.62,-510.14 -80.75,-505.57 -81.96,-501.26 -83.17,-496.94 -84.21,-493.29 -85.26,-489.63 -85.57,-486.53 -85.89,-483.42 -85.84,-480.80 -85.78,-478.17 -85.08,-475.18 -84.37,-472.19 -83.14,-469.16 -81.90,-466.14 -81.59,-463.98 -81.27,-461.82 -81.09,-458.99 -80.91,-456.16 -80.76,-453.48 -80.61,-450.79 -80.51,-448.59 -80.42,-446.39 -80.34,-444.12 -80.27,-441.84 -80.19,-439.32 -80.10,-436.79 -80.06,-434.65 -80.01,-432.51 -80.35,-430.25 -80.70,-427.99 -80.69,-425.41 -80.69,-422.83 -81.13,-420.17 -81.57,-417.51 -82.87,-415.25 -84.17,-412.99 -85.92,-411.68 -87.67,-410.37 -89.87,-409.79 -92.08,-409.20 -94.21,-409.12 -96.35,-409.04 -98.57,-409.00 -100.78,-408.97 -103.12,-409.60 -105.46,-410.23 -108.17,-412.72 -110.87,-415.20 -112.58,-418.00 -114.29,-420.81 -115.85,-424.19 -117.41,-427.58 -118.37,-430.26 -119.33,-432.94 -120.05,-435.21 -120.78,-437.48 -121.50,-439.63 -122.23,-441.78 -122.85,-443.83 -123.46,-445.89 -123.75,-449.10 -124.04,-452.32 -124.30,-455.07 -124.56,-457.81 -124.63,-461.05 -124.70,-464.30 -124.89,-467.73 -125.08,-471.17 -125.23,-474.20 -125.38,-477.23 -125.93,-479.83 -126.49,-482.43 -126.75,-486.43 -127.00,-490.43 -127.02,-492.59 -127.03,-494.75 -127.09,-498.29 -127.16,-501.84 -127.24,-504.58 -127.33,-507.31 -128.38,-510.23 -129.43,-513.14 -130.58,-516.25 -131.73,-519.36 -132.31,-523.34 -132.89,-527.32 -133.07,-529.87 -133.24,-532.42 -133.49,-534.53 -133.73,-536.64 -133.98,-539.45 -134.23,-542.26 -134.52,-547.74 -134.81,-553.21 -135.40,-556.83 -135.99,-560.46 -136.46,-564.59 -136.93,-568.72 -137.18,-572.36 -137.43,-576.01 -137.88,-578.67 -138.33,-581.34 -138.60,-584.05 -138.86,-586.77 -139.42,-589.81 -139.98,-592.85 -140.93,-597.53 -141.89,-602.21 -142.36,-604.78 -142.83,-607.35 -143.71,-612.21 -144.58,-617.06 -145.49,-620.90 -146.39,-624.74 -147.40,-628.13 -148.40,-631.51 -149.71,-635.39 -151.02,-639.27 -151.98,-642.51 -152.93,-645.74 -153.59,-648.51 -154.26,-651.27 -154.31,-653.57 -154.35,-655.87 -154.85,-658.02 -155.34,-660.18 -156.05,-662.46 -156.75,-664.74 -157.60,-667.57 -158.45,-670.39 -159.18,-673.08 -159.90,-675.77 -160.52,-678.27 -161.13,-680.77 -162.16,-684.46 -163.18,-688.14 -164.04,-690.62 -164.90,-693.10 -166.07,-696.08 -167.23,-699.07 -168.78,-700.93 -170.32,-702.79 -172.32,-704.49 -174.31,-706.19 -176.30,-707.54 -178.28,-708.89 -180.38,-709.30 -182.48,-709.71 -184.39,-708.61 -186.31,-707.51 -189.12,-706.33 -191.93,-705.16 -193.77,-703.63 -195.62,-702.09 -196.56,-699.87 -197.50,-697.64 -198.34,-694.86 -199.17,-692.09 -199.23,-688.62 -199.28,-685.16 -199.31,-682.55 -199.34,-679.94 -199.46,-675.92 -199.58,-671.90 -199.66,-669.63 -199.74,-667.37 -199.87,-664.63 -200.00,-661.89 -200.09,-657.51 -200.17,-653.12 -200.13,-650.14 -200.10,-647.15 -200.16,-642.89 -200.22,-638.63 -200.18,-635.72 -200.13,-632.82 -200.09,-630.18 -200.04,-627.55 -200.01,-624.72 -199.99,-621.90 -199.61,-619.11 -199.23,-616.31 -199.31,-612.00 -199.40,-607.68 -199.07,-604.79 -198.74,-601.91 -198.69,-598.19 -198.64,-594.47 -198.31,-590.11 -197.98,-585.75 -197.75,-583.63 -197.53,-581.52 -197.43,-578.95 -197.33,-576.39 -196.69,-572.95 -196.05,-569.50 -195.17,-566.75 -194.30,-564.00 -194.10,-561.32 -193.89,-558.65 -193.41,-556.32 -192.93,-554.00 -192.44,-550.81 -191.94,-547.62 -191.31,-544.09 -190.67,-540.56 -190.03,-537.62 -189.38,-534.68 -188.62,-532.28 -187.85,-529.89 -187.19,-527.80 -186.53,-525.71 -185.96,-522.76 -185.39,-519.82 -185.18,-517.16 -184.98,-514.50 -184.40,-512.44 -183.83,-510.37 -183.16,-506.55 -182.49,-502.73 -182.50,-500.12 -182.51,-497.51 -182.59,-494.65 -182.67,-491.79 -182.70,-489.22 -182.74,-486.66 -182.76,-484.21 -182.78,-481.77 -182.79,-479.38 -182.80,-476.98 -182.75,-473.32 -182.69,-469.66 -181.68,-466.89 -180.68,-464.12 -179.68,-461.31 -178.68,-458.50 -177.35,-455.28 -176.01,-452.05 -175.29,-449.54 -174.57,-447.03 -173.85,-444.00 -173.14,-440.96 -172.40,-437.62 -171.66,-434.28 -171.31,-430.64 -170.95,-426.99 -170.59,-424.73 -170.22,-422.47 -170.14,-420.24 -170.05,-418.01 -170.34,-414.39 -170.62,-410.78 -171.16,-408.18 -171.71,-405.58 -172.94,-402.80 -174.17,-400.02 -176.09,-398.15 -178.01,-396.29 -180.27,-395.85 -182.54,-395.41 -186.31,-397.59 -190.08,-399.77 -191.80,-402.57 -193.51,-405.37 -194.64,-407.29 -195.76,-409.22 -197.38,-412.27 -199.00,-415.33 -199.93,-417.61 -200.86,-419.90 -202.14,-422.78 -203.43,-425.65 -204.24,-427.95 -205.05,-430.25 -205.17,-432.70 -205.29,-435.15 -205.26,-437.97 -205.24,-440.79 -205.85,-444.21 -206.45,-447.62 -207.51,-451.60 -208.56,-455.58 -209.17,-458.08 -209.78,-460.58 -210.85,-464.64 -211.93,-468.71 -213.60,-471.40 -215.27,-474.09 -216.31,-477.03 -217.35,-479.98 -217.73,-482.13 -218.10,-484.29 -218.19,-486.99 -218.27,-489.69 -218.70,-492.22 -219.12,-494.75 -219.10,-498.53 -219.07,-502.31 -219.21,-505.94 -219.34,-509.58 -219.60,-512.20 -219.86,-514.82 -220.02,-517.06 -220.19,-519.30 -220.79,-523.57 -221.39,-527.84 -222.15,-530.54 -222.90,-533.24 -223.38,-535.72 -223.85,-538.21 -225.46,-541.03 -227.07,-543.85 -228.01,-546.30 -228.94,-548.75 -229.65,-551.90 -230.36,-555.05 -230.71,-557.36 -231.06,-559.66 -231.98,-562.38 -232.89,-565.09 -232.96,-568.07 -233.03,-571.04 -234.34,-577.48 -235.66,-583.91 -237.40,-589.39 -239.14,-594.87 -240.87,-600.23 -242.59,-605.59 -243.91,-610.31 -245.22,-615.02 -246.60,-618.64 -247.97,-622.25 -249.36,-626.14 -250.75,-630.03 -251.76,-632.00 -252.77,-633.98 -254.27,-637.36 -255.77,-640.73 -256.51,-642.97 -257.25,-645.20 -257.61,-647.90 -257.98,-650.59 -258.14,-653.03 -258.29,-655.48 -259.49,-658.60 -260.68,-661.72 -261.96,-663.63 -263.23,-665.54 -264.67,-667.22 -266.10,-668.90 -268.26,-670.52 -270.43,-672.14 -273.16,-672.70 -275.90,-673.26 -278.71,-673.34 -281.52,-673.42 -282.59,-670.35 -283.67,-667.29 -284.96,-664.24 -286.26,-661.18 -287.04,-658.66 -287.83,-656.14 -288.86,-651.94 -289.89,-647.73 -290.14,-643.63 -290.38,-639.53 -290.42,-637.26 -290.46,-634.99 -289.97,-631.75 -289.48,-628.52 -289.45,-625.03 -289.42,-621.53 -288.81,-615.29 -288.21,-609.05 -287.70,-603.36 -287.20,-597.67 -286.47,-594.09 -285.74,-590.51 -285.08,-588.33 -284.41,-586.16 -283.52,-581.50 -282.63,-576.83 -281.81,-571.24 -281.00,-565.64 -280.35,-560.28 -279.71,-554.92 -279.13,-550.34 -278.56,-545.75 -277.88,-542.52 -277.20,-539.28 -276.55,-537.03 -275.90,-534.78 -275.30,-532.37 -274.71,-529.95 -274.16,-526.93 -273.62,-523.91 -273.23,-518.84 -272.84,-513.77 -272.74,-509.21 -272.65,-504.66 -272.40,-501.82 -272.15,-498.98 -271.35,-494.06 -270.54,-489.13 -269.21,-483.50 -267.87,-477.86 -266.51,-473.75 -265.14,-469.64 -264.09,-466.90 -263.04,-464.17 -261.85,-461.45 -260.66,-458.73 -259.74,-456.29 -258.81,-453.85 -258.31,-451.38 -257.80,-448.90 -257.19,-445.52 -256.59,-442.13 -256.23,-439.66 -255.87,-437.19 -255.73,-434.67 -255.58,-432.15 -255.18,-429.70 -254.78,-427.25 -254.41,-424.76 -254.04,-422.26 -253.92,-419.77 -253.80,-417.27 -253.52,-414.73 -253.24,-412.19 -252.65,-409.42 -252.07,-406.65 -252.12,-402.72 -252.18,-398.79 -251.39,-394.38 -250.60,-389.97 -249.35,-384.99 -248.10,-380.01 -247.02,-376.53 -245.93,-373.04 -245.13,-370.91 -244.32,-368.77 -243.00,-365.89 -241.69,-363.00 -240.53,-360.74 -239.37,-358.48 -238.59,-355.70 -237.81,-352.92 -237.47,-350.49 -237.12,-348.07 -236.67,-345.59 -236.22,-343.12 -237.40,-339.77 -238.59,-336.43 -240.92,-335.38 -243.26,-334.34 -245.54,-333.88 -247.82,-333.41 -250.94,-333.68 -254.07,-333.94 -256.78,-335.48 -259.49,-337.01 -261.65,-339.30 -263.80,-341.59 -265.62,-343.92 -267.43,-346.24 -270.10,-349.14 -272.76,-352.04 -275.20,-354.36 -277.63,-356.68 -279.22,-360.68 -280.81,-364.67 -280.95,-367.00 -281.08,-369.32 -281.23,-371.64 -281.37,-373.96 -281.79,-376.84 -282.22,-379.71 -282.40,-382.59 -282.58,-385.47 -283.07,-388.81 -283.55,-392.16 -284.30,-395.35 -285.04,-398.55 -285.87,-402.33 -286.70,-406.12 -287.63,-409.45 -288.55,-412.78 -289.52,-415.47 -290.48,-418.16 -291.26,-421.33 -292.04,-424.51 -292.47,-426.90 -292.91,-429.30 -293.31,-432.80 -293.71,-436.31 -293.86,-440.26 -294.02,-444.21 -294.47,-447.14 -294.92,-450.06 -296.35,-454.78 -297.78,-459.49 -299.16,-465.42 -300.55,-471.34 -302.01,-476.00 -303.47,-480.66 -304.71,-484.49 -305.95,-488.31 -307.08,-490.71 -308.21,-493.11 -309.07,-495.18 -309.94,-497.24 -311.66,-500.49 -313.38,-503.75 -313.69,-507.45 -314.00,-511.15 -314.16,-514.13 -314.33,-517.10 -314.65,-519.95 -314.97,-522.79 -315.77,-524.86 -316.58,-526.93 -318.44,-529.37 -320.31,-531.82 -322.73,-530.85 -325.14,-529.88 -327.13,-527.72 -329.12,-525.56 -329.90,-522.34 -330.68,-519.12 -331.01,-516.27 -331.35,-513.42 -332.24,-508.38 -333.13,-503.35 -334.12,-497.67 -335.11,-492.00 -336.03,-486.08 -336.94,-480.16 -337.42,-474.88 -337.91,-469.60 -338.19,-464.48 -338.47,-459.36 -338.57,-455.40 -338.67,-451.44 -338.53,-448.83 -338.38,-446.22 -338.09,-443.40 -337.79,-440.57 -337.61,-437.80 -337.42,-435.02 -337.70,-429.06 -337.98,-423.10 -338.19,-415.52 -338.40,-407.94 -338.56,-401.16 -338.71,-394.38 -339.25,-387.16 -339.80,-379.94 -340.06,-371.98 -340.32,-364.02 -340.46,-359.19 -340.60,-354.35 -340.58,-350.53 -340.56,-346.70 -340.17,-343.45 -339.78,-340.19 -338.60,-337.14 -337.43,-334.09 -336.42,-332.18 -335.40,-330.27 -334.27,-328.41 -333.14,-326.54 -332.01,-324.66 -330.88,-322.78 -328.93,-320.84 -326.99,-318.90 -323.83,-313.39 -320.68,-307.87 -317.84,-301.69 -315.00,-295.50 -312.63,-289.14 -310.27,-282.78 -308.11,-277.90 -305.95,-273.02 -304.35,-268.40 -302.75,-263.78 -301.47,-261.08 -300.20,-258.38 -299.26,-256.20 -298.33,-254.02 -297.16,-251.95 -296.00,-249.88 -294.99,-246.15 -293.97,-242.41 -292.69,-234.77 -291.41,-227.13 -290.11,-219.59 -288.81,-212.05 -286.56,-201.73 -284.30,-191.40 -283.36,-185.46 -282.42,-179.52 -281.41,-174.77 -280.40,-170.02 -279.53,-166.65 -278.65,-163.27 -277.82,-160.50 -276.99,-157.72 -276.75,-155.58 -276.51,-153.44 -275.60,-150.23 -274.69,-147.02 -273.20,-141.88 -271.71,-136.74 -269.31,-129.50 -266.92,-122.27 -264.11,-114.12 -261.30,-105.98 -258.45,-98.29 -255.60,-90.61 -253.73,-84.95 -251.86,-79.28 -250.09,-74.62 -248.32,-69.96 -247.12,-67.04 -245.92,-64.12 -244.97,-62.18 -244.02,-60.24 -243.09,-54.94 -242.16,-49.65 -241.93,-44.20 -241.69,-38.75 -241.65,-33.42 -241.61,-28.09 -241.64,-22.95 -241.68,-17.81 -241.37,-13.42 -241.06,-9.04 -240.76,-5.73 -240.45,-2.42 -239.73,0.01 -239.01,2.45 -238.35,4.48 -237.70,6.50 -236.58,8.40 -235.46,10.30 -234.65,12.53 -233.84,14.75 -233.75,15.49 -233.66,16.23 -233.80,16.96 -233.95,17.69 -234.32,18.33 -234.69,18.98 -235.25,19.47 -235.81,19.96 -236.50,20.25 -237.18,20.54 -237.93,20.59 -238.67,20.64 -239.39,20.46 -240.11,20.27 -240.73,19.86 -241.36,19.46 -241.82,18.87 -242.28,18.29 -242.53,17.59 -242.78,16.89 -242.79,16.14 -242.80,15.40 -242.58,14.69 -242.35,13.98 -241.91,13.38 -241.47,12.78 -240.87,12.35 -240.26,11.92 -239.54,11.71 -238.83,11.50 -238.09,11.53 -237.34,11.55 -236.65,11.82 -235.95,12.08 -235.38,12.55 -234.80,13.02 -234.41,13.65 -234.01,14.28 -233.84,15.01 -233.67,15.73 -233.73,16.47 -233.80,17.21 -234.10,17.89 -234.40,18.58 -234.90,19.12 -235.40,19.67 -236.06,20.03 -236.71,20.39 -237.44,20.53 -238.17,20.66 -238.91,20.55 -239.64,20.45 -240.31,20.11 -240.97,19.77 -241.49,19.24 -242.01,18.71 -242.34,18.04 -242.66,17.37 -242.66,17.37 -242.66,17.37 -243.32,15.49 -243.97,13.60 -244.75,10.98 -245.52,8.36 -245.85,6.19 -246.17,4.02 -246.65,0.98 -247.13,-2.06 -247.16,-5.28 -247.19,-8.50 -247.68,-13.10 -248.16,-17.71 -248.36,-22.77 -248.55,-27.84 -248.89,-32.99 -249.24,-38.14 -249.90,-43.81 -250.57,-49.49 -250.69,-53.59 -250.80,-57.70 -251.39,-59.87 -251.97,-62.03 -252.79,-64.97 -253.61,-67.91 -255.49,-72.66 -257.37,-77.41 -259.31,-82.93 -261.24,-88.46 -264.25,-96.15 -267.26,-103.84 -270.27,-111.94 -273.27,-120.03 -275.95,-127.26 -278.63,-134.48 -280.50,-139.60 -282.37,-144.72 -283.54,-150.65 -284.72,-156.59 -284.81,-159.23 -284.90,-161.88 -285.55,-165.29 -286.19,-168.71 -287.36,-173.58 -288.53,-178.45 -289.61,-184.19 -290.69,-189.93 -293.21,-200.32 -295.72,-210.71 -297.34,-218.18 -298.96,-225.65 -300.57,-232.78 -302.18,-239.92 -303.35,-243.37 -304.53,-246.82 -305.22,-249.11 -305.91,-251.40 -306.44,-253.47 -306.97,-255.55 -308.05,-258.46 -309.12,-261.37 -310.86,-265.58 -312.60,-269.79 -315.21,-274.72 -317.82,-279.65 -320.49,-285.45 -323.17,-291.24 -326.51,-296.93 -329.86,-302.62 -331.95,-306.37 -334.04,-310.11 -335.79,-311.66 -337.54,-313.21 -338.82,-315.60 -340.10,-317.99 -341.46,-320.99 -342.82,-324.00 -343.67,-326.48 -344.52,-328.97 -345.26,-332.04 -345.99,-335.12 -346.15,-337.38 -346.32,-339.64 -346.50,-343.20 -346.67,-346.75 -346.59,-350.60 -346.51,-354.44 -346.49,-359.30 -346.48,-364.16 -346.38,-372.25 -346.28,-380.33 -345.98,-387.35 -345.67,-394.38 -345.83,-401.16 -345.98,-407.94 -346.19,-415.52 -346.41,-423.10 -346.68,-429.06 -346.96,-435.03 -346.77,-437.82 -346.58,-440.60 -346.26,-443.44 -345.95,-446.28 -345.76,-448.90 -345.57,-451.53 -345.58,-455.52 -345.59,-459.51 -345.65,-464.74 -345.71,-469.97 -345.67,-475.51 -345.63,-481.05 -345.31,-487.05 -345.00,-493.05 -344.79,-498.68 -344.58,-504.31 -344.64,-509.14 -344.71,-513.96 -344.58,-519.33 -344.46,-524.70 -343.80,-527.66 -343.14,-530.63 -341.85,-532.33 -340.56,-534.03 -338.35,-536.20 -336.15,-538.37 -334.26,-540.24 -332.38,-542.10 -330.23,-542.91 -328.09,-543.72 -325.45,-543.74 -322.81,-543.76 -320.55,-543.64 -318.28,-543.53 -315.81,-542.83 -313.33,-542.13 -311.44,-539.70 -309.54,-537.28 -307.71,-534.90 -305.87,-532.53 -304.93,-529.84 -303.98,-527.14 -303.50,-523.63 -303.02,-520.12 -303.15,-517.32 -303.28,-514.51 -303.41,-511.32 -303.54,-508.13 -303.16,-505.31 -302.78,-502.48 -301.97,-499.21 -301.16,-495.94 -300.25,-493.26 -299.35,-490.59 -297.98,-486.84 -296.61,-483.10 -294.72,-478.28 -292.82,-473.47 -291.07,-468.04 -289.33,-462.60 -287.07,-457.32 -284.81,-452.03 -283.96,-448.15 -283.10,-444.27 -283.09,-441.75 -283.08,-439.23 -283.22,-436.62 -283.35,-434.01 -283.18,-430.34 -283.00,-426.67 -282.37,-423.94 -281.73,-421.21 -280.76,-418.34 -279.79,-415.48 -278.64,-412.10 -277.50,-408.71 -276.23,-405.05 -274.96,-401.39 -273.84,-397.98 -272.72,-394.56 -271.61,-390.71 -270.50,-386.85 -269.99,-383.71 -269.49,-380.57 -269.18,-377.82 -268.87,-375.07 -268.59,-372.54 -268.31,-370.01 -268.19,-367.44 -268.07,-364.88 -265.95,-362.77 -263.83,-360.66 -260.83,-357.49 -257.83,-354.31 -256.10,-352.42 -254.36,-350.52 -252.86,-348.73 -251.35,-346.93 -248.89,-346.72 -246.42,-346.51 -247.53,-344.66 -248.65,-342.82 -248.82,-345.78 -248.99,-348.75 -249.26,-351.62 -249.52,-354.49 -250.41,-356.95 -251.30,-359.42 -252.29,-362.63 -253.28,-365.85 -253.86,-367.95 -254.43,-370.05 -255.81,-373.55 -257.18,-377.04 -259.22,-382.12 -261.25,-387.19 -263.11,-392.90 -264.96,-398.61 -265.20,-402.06 -265.44,-405.52 -265.93,-408.52 -266.42,-411.53 -266.64,-414.30 -266.86,-417.06 -266.87,-420.17 -266.88,-423.27 -267.13,-425.73 -267.38,-428.19 -267.60,-431.22 -267.81,-434.24 -267.78,-436.55 -267.76,-438.85 -267.79,-441.90 -267.82,-444.95 -268.03,-447.25 -268.23,-449.55 -268.60,-452.97 -268.98,-456.40 -269.54,-459.13 -270.09,-461.86 -270.82,-464.57 -271.56,-467.28 -273.29,-471.59 -275.03,-475.91 -276.81,-481.75 -278.60,-487.59 -279.24,-493.14 -279.88,-498.68 -279.85,-501.46 -279.82,-504.24 -280.24,-508.52 -280.67,-512.80 -281.49,-517.57 -282.31,-522.33 -282.92,-527.76 -283.53,-533.19 -283.85,-535.60 -284.18,-538.02 -284.70,-541.37 -285.21,-544.72 -286.05,-549.26 -286.90,-553.80 -287.88,-558.97 -288.87,-564.14 -290.20,-569.77 -291.52,-575.40 -292.13,-579.78 -292.74,-584.15 -293.15,-586.43 -293.55,-588.71 -294.55,-592.61 -295.54,-596.51 -296.60,-602.06 -297.65,-607.61 -299.02,-614.28 -300.40,-620.95 -300.78,-625.20 -301.16,-629.46 -301.52,-632.31 -301.88,-635.17 -301.83,-637.58 -301.79,-640.00 -301.68,-642.50 -301.57,-644.99 -301.28,-647.68 -300.99,-650.36 -300.43,-652.68 -299.87,-655.00 -299.27,-657.12 -298.68,-659.24 -297.91,-662.14 -297.15,-665.03 -296.19,-668.36 -295.23,-671.68 -294.01,-675.57 -292.79,-679.46 -290.80,-682.13 -288.80,-684.80 -286.31,-685.79 -283.81,-686.79 -281.10,-686.77 -278.38,-686.74 -274.38,-686.40 -270.38,-686.05 -267.69,-685.14 -264.99,-684.22 -262.41,-682.93 -259.82,-681.64 -257.14,-678.52 -254.45,-675.39 -253.08,-673.24 -251.71,-671.08 -250.49,-668.84 -249.28,-666.61 -248.32,-664.31 -247.36,-662.02 -247.08,-659.82 -246.81,-657.61 -246.96,-655.49 -247.11,-653.37 -247.34,-650.24 -247.56,-647.12 -247.25,-644.84 -246.94,-642.55 -246.26,-639.74 -245.59,-636.94 -244.89,-634.75 -244.19,-632.56 -242.63,-628.82 -241.08,-625.09 -239.40,-621.30 -237.72,-617.51 -236.02,-613.14 -234.32,-608.76 -232.04,-603.67 -229.75,-598.58 -227.12,-592.99 -224.50,-587.41 -222.51,-582.64 -220.53,-577.86 -220.07,-573.50 -219.62,-569.13 -218.72,-566.44 -217.82,-563.76 -217.44,-561.64 -217.05,-559.53 -216.40,-556.33 -215.75,-553.14 -214.88,-550.10 -214.02,-547.07 -212.61,-543.92 -211.20,-540.77 -210.92,-538.59 -210.65,-536.41 -209.90,-533.25 -209.15,-530.08 -208.65,-527.63 -208.16,-525.18 -207.64,-520.92 -207.11,-516.66 -206.58,-513.84 -206.05,-511.03 -205.71,-506.69 -205.38,-502.36 -205.29,-498.75 -205.21,-495.15 -204.88,-492.50 -204.54,-489.85 -204.53,-487.15 -204.51,-484.45 -203.52,-481.68 -202.53,-478.90 -201.19,-475.62 -199.84,-472.33 -198.60,-468.11 -197.35,-463.89 -196.74,-461.82 -196.13,-459.75 -194.71,-455.31 -193.30,-450.87 -192.48,-448.01 -191.67,-445.15 -191.38,-442.99 -191.08,-440.83 -191.11,-436.98 -191.14,-433.13 -190.36,-431.06 -189.58,-428.99 -187.88,-425.64 -186.18,-422.29 -185.09,-420.20 -184.00,-418.11 -182.32,-415.40 -180.65,-412.68 -179.34,-410.70 -178.04,-408.72 -180.58,-409.47 -183.12,-410.22 -184.70,-408.52 -186.28,-406.82 -185.92,-409.01 -185.56,-411.20 -185.02,-414.06 -184.49,-416.93 -184.45,-419.29 -184.41,-421.65 -184.70,-423.86 -184.98,-426.07 -185.25,-428.51 -185.53,-430.95 -185.86,-433.52 -186.19,-436.09 -186.94,-439.37 -187.68,-442.65 -188.09,-444.92 -188.49,-447.18 -189.23,-449.40 -189.98,-451.62 -190.57,-453.92 -191.15,-456.22 -191.87,-458.45 -192.60,-460.68 -192.99,-462.78 -193.38,-464.88 -193.94,-467.17 -194.51,-469.46 -194.46,-473.22 -194.40,-476.98 -194.42,-479.36 -194.43,-481.75 -194.46,-484.19 -194.48,-486.62 -194.53,-489.17 -194.58,-491.71 -194.70,-494.51 -194.82,-497.30 -194.91,-499.64 -195.00,-501.98 -195.27,-504.64 -195.54,-507.30 -196.12,-510.81 -196.70,-514.32 -196.65,-517.21 -196.60,-520.10 -197.21,-523.41 -197.82,-526.72 -198.70,-529.49 -199.58,-532.26 -200.30,-535.10 -201.03,-537.94 -202.22,-541.64 -203.42,-545.33 -204.13,-548.21 -204.85,-551.09 -205.83,-554.73 -206.80,-558.38 -207.13,-561.15 -207.45,-563.93 -208.16,-567.20 -208.87,-570.47 -209.43,-575.22 -209.99,-579.97 -210.50,-584.53 -211.00,-589.09 -211.43,-593.68 -211.86,-598.26 -211.95,-600.68 -212.03,-603.10 -212.31,-605.38 -212.59,-607.65 -212.64,-609.87 -212.70,-612.08 -212.73,-614.57 -212.77,-617.06 -212.97,-619.46 -213.17,-621.85 -213.14,-624.70 -213.11,-627.55 -213.07,-630.18 -213.02,-632.82 -212.98,-635.72 -212.93,-638.63 -213.00,-642.89 -213.06,-647.15 -213.02,-650.14 -212.99,-653.12 -213.07,-657.51 -213.16,-661.89 -213.29,-664.63 -213.42,-667.37 -213.50,-669.63 -213.57,-671.90 -213.64,-674.05 -213.71,-676.20 -213.77,-679.31 -213.82,-682.43 -213.87,-685.63 -213.92,-688.84 -213.81,-692.24 -213.70,-695.64 -212.90,-698.00 -212.10,-700.36 -211.18,-703.33 -210.25,-706.30 -209.13,-708.18 -208.00,-710.05 -206.38,-712.20 -204.75,-714.34 -203.06,-715.97 -201.37,-717.59 -198.67,-718.11 -195.98,-718.63 -193.68,-719.86 -191.39,-721.10 -189.42,-722.20 -187.45,-723.31 -183.72,-723.56 -179.98,-723.81 -177.61,-723.20 -175.23,-722.58 -172.66,-721.10 -170.09,-719.61 -167.75,-717.79 -165.42,-715.97 -163.27,-713.95 -161.13,-711.93 -159.52,-709.40 -157.91,-706.87 -156.77,-704.56 -155.62,-702.25 -154.65,-699.26 -153.68,-696.27 -153.01,-693.55 -152.35,-690.82 -151.54,-687.05 -150.73,-683.28 -150.17,-680.91 -149.62,-678.53 -148.96,-676.11 -148.31,-673.69 -147.32,-670.84 -146.32,-668.00 -145.47,-665.28 -144.61,-662.55 -143.90,-659.29 -143.20,-656.02 -143.27,-652.92 -143.34,-649.83 -143.04,-647.44 -142.74,-645.05 -142.27,-642.93 -141.80,-640.81 -141.16,-637.39 -140.53,-633.97 -139.41,-630.53 -138.28,-627.09 -136.96,-623.20 -135.63,-619.31 -134.03,-614.33 -132.43,-609.34 -131.86,-606.45 -131.29,-603.55 -131.30,-601.29 -131.32,-599.02 -130.53,-596.34 -129.73,-593.65 -129.60,-590.54 -129.46,-587.43 -129.38,-585.05 -129.29,-582.68 -128.90,-579.72 -128.52,-576.75 -128.19,-573.52 -127.86,-570.28 -126.97,-566.54 -126.09,-562.81 -124.88,-558.87 -123.67,-554.93 -122.46,-548.94 -121.25,-542.96 -121.14,-540.66 -121.03,-538.36 -120.69,-536.11 -120.35,-533.86 -119.84,-529.72 -119.32,-525.58 -119.04,-522.06 -118.77,-518.54 -117.12,-516.07 -115.47,-513.61 -115.21,-510.46 -114.95,-507.31 -115.03,-504.58 -115.11,-501.84 -115.18,-498.31 -115.24,-494.77 -115.26,-490.80 -115.29,-486.84 -115.29,-484.51 -115.30,-482.18 -115.02,-480.05 -114.75,-477.91 -114.53,-475.19 -114.32,-472.46 -113.64,-468.71 -112.96,-464.97 -112.70,-462.23 -112.43,-459.50 -111.89,-456.52 -111.35,-453.54 -110.60,-449.96 -109.86,-446.37 -108.28,-442.32 -106.70,-438.27 -105.47,-435.78 -104.24,-433.29 -102.99,-430.82 -101.74,-428.36 -100.58,-426.06 -99.43,-423.76 -97.35,-422.90 -95.27,-422.04 -95.00,-424.61 -94.72,-427.17 -94.32,-429.87 -93.91,-432.57 -93.85,-435.18 -93.78,-437.78 -93.69,-440.54 -93.60,-443.29 -93.52,-445.56 -93.44,-447.82 -93.31,-450.53 -93.18,-453.24 -93.05,-455.71 -92.93,-458.18 -92.80,-460.48 -92.67,-462.79 -93.13,-465.24 -93.59,-467.68 -94.03,-470.59 -94.48,-473.51 -94.35,-476.21 -94.23,-478.90 -93.65,-481.63 -93.06,-484.37 -92.50,-487.95 -91.93,-491.54 -90.91,-495.06 -89.88,-498.59 -89.00,-502.82 -88.12,-507.05 -87.41,-511.62 -86.70,-516.19 -85.68,-523.38 -84.66,-530.57 -84.60,-536.00 -84.54,-541.44 -84.98,-546.26 -85.42,-551.08 -85.60,-554.05 -85.77,-557.03 -85.84,-560.46 -85.91,-563.89 -86.72,-565.86 -87.53,-567.82 -88.55,-571.93 -89.57,-576.04 -89.54,-578.29 -89.51,-580.54 -89.49,-582.92 -89.46,-585.30 -89.46,-588.43 -89.47,-591.57 -89.45,-593.99 -89.43,-596.40 -89.40,-598.91 -89.37,-601.42 -89.33,-603.76 -89.29,-606.10 -89.23,-609.26 -89.17,-612.41 -88.45,-616.45 -87.73,-620.48 -87.14,-623.05 -86.56,-625.63 -85.65,-629.89 -84.75,-634.15 -84.10,-636.76 -83.44,-639.38 -82.01,-642.95 -80.58,-646.52 -79.71,-649.02 -78.84,-651.51 -78.07,-654.24 -77.29,-656.97 -76.86,-659.82 -76.44,-662.68 -76.54,-666.52 -76.64,-670.36 -76.09,-672.86 -75.53,-675.35 -74.84,-677.70 -74.14,-680.05 -72.96,-682.88 -71.78,-685.71 -70.25,-688.26 -68.71,-690.81 -67.35,-692.75 -65.99,-694.68 -63.38,-697.14 -60.77,-699.59 -58.77,-700.77 -56.77,-701.95 -54.22,-702.62 -51.68,-703.30 -49.12,-703.24 -46.56,-703.18 -44.12,-702.53 -41.68,-701.89 -38.82,-700.33 -35.96,-698.77 -32.77,-697.35 -29.59,-695.92 -27.18,-695.86 -24.77,-695.80 -22.28,-695.72 -19.78,-695.64 -16.26,-694.29 -12.73,-692.94 -11.45,-690.87 -10.17,-688.81 -8.82,-686.19 -7.47,-683.57 -6.61,-681.48 -5.76,-679.39 -4.31,-676.60 -2.86,-673.80 -1.25,-671.25 0.35,-668.70 1.32,-665.71 2.28,-662.71 2.85,-660.12 3.41,-657.53 3.43,-653.81 3.44,-650.09 3.33,-647.78 3.21,-645.48 3.23,-642.26 3.24,-639.04 3.39,-635.61 3.54,-632.18 4.04,-628.33 4.55,-624.47 5.73,-620.13 6.91,-615.78 7.31,-612.40 7.71,-609.02 7.48,-606.24 7.25,-603.47 6.95,-600.55 6.65,-597.63 6.53,-594.56 6.42,-591.50 6.50,-587.48 6.59,-583.45 6.78,-578.14 6.98,-572.84 7.03,-569.20 7.09,-565.56 7.37,-560.37 7.64,-555.19 7.44,-552.45 7.24,-549.72 6.93,-546.63 6.63,-543.53 6.69,-539.82 6.75,-536.12 6.81,-532.64 6.88,-529.16 7.24,-525.09 7.60,-521.01 8.35,-514.67 9.10,-508.33 9.78,-503.37 10.46,-498.40 10.86,-493.88 11.26,-489.35 11.27,-487.07 11.27,-484.78 11.12,-482.21 10.97,-479.63 10.91,-477.04 10.84,-474.44 10.93,-472.25 11.02,-470.07 11.36,-467.47 11.70,-464.88 11.78,-462.66 11.86,-460.44 12.20,-457.74 12.54,-455.03 12.65,-452.46 12.77,-449.90 13.23,-446.58 13.68,-443.26 14.01,-439.75 14.34,-436.23 14.47,-432.83 14.59,-429.43 14.35,-425.18 14.11,-420.94 13.59,-418.14 13.07,-415.35 12.49,-412.76 11.90,-410.17 11.00,-406.81 10.10,-403.44 9.42,-399.60 8.74,-395.76 8.35,-392.38 7.96,-389.00 8.06,-383.75 8.16,-378.50 8.26,-375.88 8.36,-373.26 8.84,-371.05 9.32,-368.83 10.01,-366.11 10.71,-363.39 11.80,-360.50 12.89,-357.61 14.30,-354.16 15.70,-350.70 17.68,-346.28 19.65,-341.86 20.19,-339.36 20.73,-336.87 21.31,-332.66 21.89,-328.45 21.91,-325.42 21.93,-322.39 22.04,-318.62 22.14,-314.85 22.26,-311.97 22.38,-309.10 22.85,-306.45 23.33,-303.81 23.65,-300.84 23.97,-297.87 25.06,-295.92 26.14,-293.98 24.13,-295.17 22.12,-296.37 24.60,-296.63 27.09,-296.89 30.16,-296.20 33.23,-295.52 35.92,-296.74 38.61,-297.97 40.95,-297.91 43.29,-297.84 45.46,-299.34 47.63,-300.83 50.04,-302.74 52.44,-304.65 54.46,-305.72 56.48,-306.80 59.52,-308.56 62.56,-310.31 64.48,-311.59 66.39,-312.87 68.54,-314.35 70.69,-315.82 73.70,-318.12 76.71,-320.43 78.59,-322.53 80.48,-324.62 82.60,-327.04 84.72,-329.45 87.61,-332.00 90.50,-334.55 92.62,-336.46 94.73,-338.37 96.61,-339.96 98.50,-341.56 100.96,-343.36 103.41,-345.17 105.56,-347.12 107.71,-349.08 109.64,-350.60 111.57,-352.12 113.65,-353.86 115.73,-355.60 117.96,-357.56 120.19,-359.53 122.13,-362.16 124.07,-364.79 125.91,-366.95 127.74,-369.11 128.87,-371.19 129.99,-373.27 132.53,-376.24 135.07,-379.21 137.01,-381.33 138.96,-383.45 141.02,-385.35 143.09,-387.26 145.43,-389.48 147.76,-391.70 149.84,-393.26 151.91,-394.82 154.51,-396.59 157.11,-398.36 160.75,-400.90 164.39,-403.43 166.50,-404.20 168.60,-404.97 172.44,-406.30 176.27,-407.64 179.76,-408.16 183.24,-408.68 185.43,-409.65 187.62,-410.62 189.55,-411.68 191.48,-412.74 194.15,-414.10 196.83,-415.47 199.79,-417.05 202.76,-418.64 205.08,-419.51 207.40,-420.37 209.82,-422.17 212.25,-423.97 214.50,-424.98 216.76,-425.98 218.66,-427.62 220.56,-429.26 222.18,-430.65 223.79,-432.03 226.92,-432.93 230.04,-433.82 232.24,-433.75 234.44,-433.68 236.54,-433.14 238.63,-432.61 241.14,-430.21 243.65,-427.81 244.76,-424.81 245.87,-421.80 247.19,-419.49 248.52,-417.19 250.06,-414.30 251.60,-411.42 252.64,-408.13 253.68,-404.85 255.77,-402.37 257.85,-399.89 258.67,-396.92 259.48,-393.95 259.45,-391.67 259.43,-389.40 259.41,-387.21 259.40,-385.02 259.33,-382.77 259.26,-380.52 258.85,-378.32 258.45,-376.12 257.52,-373.67 256.59,-371.21 255.50,-369.32 254.41,-367.44 252.89,-365.82 251.36,-364.20 248.95,-362.65 246.55,-361.10 244.36,-360.48 242.17,-359.87 239.35,-359.01 236.54,-358.16 234.97,-356.22 233.41,-354.28 231.93,-352.67 230.45,-351.06 228.82,-349.32 227.20,-347.59 225.51,-345.44 223.82,-343.29 222.59,-341.52 221.35,-339.74 219.01,-335.92 216.66,-332.10 215.68,-329.72 214.69,-327.35 212.59,-325.45 210.49,-323.54 207.97,-321.12 205.45,-318.70 203.27,-316.66 201.09,-314.62 198.41,-311.77 195.72,-308.92 193.04,-305.85 190.35,-302.77 187.56,-299.24 184.76,-295.71 181.49,-291.13 178.21,-286.55 176.53,-283.09 174.85,-279.63 174.10,-277.38 173.36,-275.13 171.56,-271.89 169.75,-268.65 168.19,-267.19 166.63,-265.73 163.90,-262.05 161.18,-258.38 159.77,-256.56 158.36,-254.74 156.90,-252.57 155.45,-250.40 153.98,-248.20 152.51,-246.00 150.95,-243.52 149.40,-241.03 148.38,-239.09 147.35,-237.14 145.69,-233.32 144.02,-229.51 143.14,-226.17 142.26,-222.84 142.18,-220.39 142.10,-217.94 141.52,-215.40 140.95,-212.86 139.39,-209.14 137.84,-205.42 136.92,-203.15 136.01,-200.89 135.04,-198.71 134.07,-196.53 132.27,-193.40 130.47,-190.27 128.78,-187.87 127.08,-185.47 124.55,-182.08 122.02,-178.70 120.64,-177.07 119.26,-175.45 117.76,-173.76 116.25,-172.07 114.51,-170.24 112.77,-168.40 110.70,-166.41 108.63,-164.42 106.55,-162.38 104.46,-160.35 101.98,-157.55 99.50,-154.75 97.11,-151.65 94.72,-148.54 92.20,-144.47 89.67,-140.40 87.81,-137.40 85.96,-134.40 84.81,-132.03 83.66,-129.66 81.84,-125.24 80.01,-120.82 78.48,-118.16 76.94,-115.50 74.56,-112.33 72.18,-109.16 69.50,-107.59 66.82,-106.02 64.89,-104.60 62.96,-103.18 61.71,-101.44 60.45,-99.70 58.44,-96.58 56.43,-93.45 53.06,-88.94 49.68,-84.42 47.46,-81.41 45.23,-78.40 42.88,-76.44 40.53,-74.48 38.69,-72.43 36.86,-70.38 34.71,-68.17 32.57,-65.95 29.88,-62.54 27.19,-59.13 24.68,-56.06 22.16,-52.99 18.55,-48.26 14.94,-43.53 11.99,-39.68 9.05,-35.84 8.42,-33.62 7.79,-31.40 7.22,-28.65 6.65,-25.91 6.53,-23.58 6.40,-21.24 6.12,-18.13 5.85,-15.02 5.72,-12.85 5.59,-10.67 5.45,-7.89 5.30,-5.10 5.29,-2.55 5.28,0 5.20,0.63 5.13,1.26 4.90,1.86 4.68,2.45 4.31,2.98 3.95,3.50 3.47,3.92 3.00,4.35 2.43,4.64 1.87,4.94 1.25,5.09 0.63,5.24 -0.00,5.24 -0.63,5.24 -1.25,5.09 -1.87,4.94 -2.43,4.64 -3.00,4.35 -3.48,3.92 -3.95,3.50 -4.31,2.98 -4.68,2.45 -4.90,1.86 -5.13,1.26 -5.20,0.63 -5.28,-0.00 -5.28,-0.00 L -5.28,0 Z"></path></g></svg>